<?xml version="1.0" standalone="no"?>
<!DOCTYPE svg PUBLIC "-//W3C//DTD SVG 1.1//EN" "http://www.w3.org/Graphics/SVG/1.1/DTD/svg11.dtd" >
<svg xmlns="http://www.w3.org/2000/svg" xmlns:xlink="http://www.w3.org/1999/xlink" version="1.1" viewBox="0 -410 2048 2048">
  <g transform="matrix(1 0 0 -1 0 1638)">
   <path fill="currentColor"
d="M1057 521q0 -253 -139 -399.5q-139 -146.5 -354 -146.5q-255 0 -398 194q-93 127 -93 348q0 261 129 403q129 142 323 142q58.0005 0 102 -12t110 -47q-36 73.0005 -63 113.5q-41.6899 62.5348 -119 142q-69.6725 71.6147 -125.373 117.082
q-55.7006 45.4677 -121.627 90.4177h217q3.60758 -2.70568 34.132 -25.0245q30.5244 -22.3188 42.6833 -32.1455q12.1589 -9.82669 38.9982 -34.2049q26.8393 -24.3782 52.6865 -52.1251q191.061 -205.101 277.28 -401.819q86.2197 -196.718 86.2197 -399.681zM870 529
q0 192 -90.5 293.5q-90.4995 101.5 -222.5 101.5q-130 0 -215 -101.5q-85.0005 -101.5 -85 -310.5q0 -194 87.5 -292q87.4995 -97.9995 218.5 -98q128 0 217.5 103.5t89.5 303.5z" />
  </g>

</svg>
