<?xml version="1.0" encoding="UTF-8" standalone="no"?>
<svg
   xmlns:dc="http://purl.org/dc/elements/1.1/"
   xmlns:cc="http://creativecommons.org/ns#"
   xmlns:rdf="http://www.w3.org/1999/02/22-rdf-syntax-ns#"
   xmlns:svg="http://www.w3.org/2000/svg"
   xmlns="http://www.w3.org/2000/svg"
   xmlns:sodipodi="http://sodipodi.sourceforge.net/DTD/sodipodi-0.dtd"
   xmlns:inkscape="http://www.inkscape.org/namespaces/inkscape"
   version="1.1"
   viewBox="0 -410 2048 2048"
   id="svg2"
   inkscape:version="0.48.3.1 r9886"
   width="100%"
   height="100%"
   sodipodi:docname="uniE028_ArialMT.svg">
  <metadata
     id="metadata12">
    <rdf:RDF>
      <cc:Work
         rdf:about="">
        <dc:format>image/svg+xml</dc:format>
        <dc:type
           rdf:resource="http://purl.org/dc/dcmitype/StillImage" />
      </cc:Work>
    </rdf:RDF>
  </metadata>
  <defs
     id="defs10" />
  <sodipodi:namedview
     pagecolor="#ffffff"
     bordercolor="#666666"
     borderopacity="1"
     objecttolerance="10"
     gridtolerance="10"
     guidetolerance="10"
     inkscape:pageopacity="0"
     inkscape:pageshadow="2"
     inkscape:window-width="1920"
     inkscape:window-height="1018"
     id="namedview8"
     showgrid="false"
     inkscape:zoom="0.12"
     inkscape:cx="1024"
     inkscape:cy="1024"
     inkscape:window-x="-8"
     inkscape:window-y="-8"
     inkscape:window-maximized="1"
     inkscape:current-layer="svg2" />
  <path
     style="fill:currentColor"
     d="m 589,557 c -90.66667,0 -173,20.83333 -247,62.5 -7.56457,4.25933 -14.89173,8.63577 -22,13.125 L 320,582 140,582 c 0,624.3333 0,1248.6667 0,1873 l 179,0 0,-407 1,0 0,-133.6562 C 397.28669,2019.4426 507.61342,2072 651,2072 c 140.66667,0 248.16667,-44.8333 322.5,-134.5 74.3333,-89.6667 111.5,-191.1667 111.5,-304.5 0,-105.3333 -31.5,-194 -94.5,-266 C 927.5,1295 838,1253.3333 722,1242 794,1229.3333 857.83333,1195.6667 913.5,1141 969.16667,1086.3333 997,1014.3333 997,925 997,833.66667 962.5,749.5 893.5,672.5 824.5,595.5 723,557 589,557 z m -9,148 c 71.33333,0 130.83333,22 178.5,66 47.66667,44 71.5,98.66667 71.5,164 0,80.6667 -28,142.3333 -84,185 -56,42.6667 -145.33333,64 -268,64 l 0,131 26,0 c 86.66667,0 156.16667,9.8333 208.5,29.5 52.33333,19.6667 96.33333,57 132,112 35.66667,55 53.5,117.1667 53.5,186.5 0,84 -24.16667,154.5 -72.5,211.5 -48.33333,57 -114.16667,85.5 -197.5,85.5 -68.66667,0 -129.33333,-21.6667 -182,-65 -52.66667,-43.3333 -87,-92 -103,-146 -12.74919,-43.0285 -20.40967,-105.3275 -23,-186.875 l 0,-539.4062 c 1.95613,-63.27864 6.78753,-109.86409 14.5,-139.7188 10.33333,-40 38.33333,-76.33333 84,-109 45.66667,-32.66667 99.5,-49 161.5,-49 z"
     transform="translate(0,-410)"
     id="path6"
     inkscape:connector-curvature="0"
     sodipodi:nodetypes="ssccccccccsssscssssssssccssssssssccsss" />
</svg>
