<?xml version="1.0" encoding="UTF-8" standalone="no"?>
<svg
   xmlns:dc="http://purl.org/dc/elements/1.1/"
   xmlns:cc="http://creativecommons.org/ns#"
   xmlns:rdf="http://www.w3.org/1999/02/22-rdf-syntax-ns#"
   xmlns:svg="http://www.w3.org/2000/svg"
   xmlns="http://www.w3.org/2000/svg"
   xmlns:sodipodi="http://sodipodi.sourceforge.net/DTD/sodipodi-0.dtd"
   xmlns:inkscape="http://www.inkscape.org/namespaces/inkscape"
   version="1.1"
   viewBox="0 -410 2048 2048"
   id="svg2"
   inkscape:version="0.48.3.1 r9886"
   width="100%"
   height="100%"
   sodipodi:docname="uniE03F_TaijituSans.svg">
  <metadata
     id="metadata12">
    <rdf:RDF>
      <cc:Work
         rdf:about="">
        <dc:format>image/svg+xml</dc:format>
        <dc:type
           rdf:resource="http://purl.org/dc/dcmitype/StillImage" />
      </cc:Work>
    </rdf:RDF>
  </metadata>
  <defs
     id="defs10" />
  <sodipodi:namedview
     pagecolor="#ffffff"
     bordercolor="#666666"
     borderopacity="1"
     objecttolerance="10"
     gridtolerance="10"
     guidetolerance="10"
     inkscape:pageopacity="0"
     inkscape:pageshadow="2"
     inkscape:window-width="1920"
     inkscape:window-height="1018"
     id="namedview8"
     showgrid="false"
     inkscape:zoom="0.11523438"
     inkscape:cx="-13.016949"
     inkscape:cy="1024"
     inkscape:window-x="-8"
     inkscape:window-y="-8"
     inkscape:window-maximized="1"
     inkscape:current-layer="svg2" />
  <path
     style="font-size:144px;font-style:normal;font-variant:normal;font-weight:normal;font-stretch:normal;text-align:start;line-height:125%;letter-spacing:0px;word-spacing:0px;writing-mode:lr-tb;text-anchor:start;fill:#000000;fill-opacity:1;stroke:none;font-family:Sans;-inkscape-font-specification:Sans"
     d="m 509.38637,552.0014 c -82.97257,0 -157.70187,19.1317 -224.02727,56.8761 -66.3239,37.743 -117.0547,90.24865 -152.4638,158.18685 -35.4091,67.9382 -52.8925,140.4844 -52.8953,217.2845 0,77.45575 15.7682,145.88175 48.0057,205.28805 32.239,59.4034 82.5957,108.3507 150.2423,147.0778 46.5039,26.2571 131.9312,57.3085 256.91759,92.4246 124.98501,35.1176 202.4322,69.1656 232.02867,102.6433 30.12271,33.4749 45.33761,76.116 45.33761,127.9717 0,59.7334 -21.46559,110.9591 -64.00714,153.2987 -31.90758,31.7525 -77.94212,51.6039 -138.23871,59.5442 -10.04943,1.3227 -20.7218,2.0039 -31.55772,2.6652 -10.83876,0.6685 -21.71166,1.3369 -33.33834,1.3369 -89.31422,-0 -156.97646,-23.6032 -202.69106,-70.2066 -45.7131,-46.6049 -72.5263,-115.3807 -80.4537,-206.6207 l -147.5728,13.7757 c 2.6425,84.6749 21.9321,160.5491 57.3398,227.5046 35.4091,66.9526 85.7785,117.5041 151.572,151.9659 65.7978,34.4606 141.88675,51.9865 228.02799,51.9894 9.77778,0 19.33939,-0.3698 28.89389,-0.896 9.55165,-0.512 19.11469,-1.1947 28.44732,-2.2215 55.98583,-6.154 108.05912,-21.5965 156.01792,-46.2109 63.94745,-32.8221 112.50075,-81.071 145.79495,-144.4126 33.2957,-63.3444 49.7835,-131.5372 49.7835,-204.3991 0,-66.297 -13.6761,-126.019 -40.8931,-179.5145 -23.8138,-46.8125 -58.5501,-86.9278 -104.0129,-120.4197 -6.4939,-4.7844 -13.066,-9.2615 -20.0008,-13.7742 -21.40444,-14.1128 -50.6226,-28.975 -88.01286,-43.9908 -9.34685,-3.7533 -19.43326,-7.2975 -29.77994,-11.109 -31.04003,-11.429 -66.64682,-23.1638 -106.67956,-35.1019 -106.75211,-31.8365 -175.50951,-55.5535 -206.69171,-70.6504 -48.6173,-22.976 -83.7619,-51.0664 -104.9018,-84.8712 -21.14,-33.8063 -31.5592,-73.3469 -31.5592,-118.64045 0,-44.6365 10.9625,-85.7842 32.8932,-123.5272 21.9335,-37.74439 55.5364,-67.65233 100.4559,-89.31421 44.9224,-21.66331 96.47087,-32.43808 155.13049,-32.43808 66.05944,0 125.83976,14.10277 178.68675,42.65675 52.85125,28.55541 91.80168,66.14334 116.90393,112.42104 21.9662,40.4922 36.8882,90.7351 44.8939,151.07715 1.152,8.6215 2.2528,17.6341 3.1118,26.661 L 1005,1040.3347 C 1002.8866,943.84535 981.42097,857.75105 940.99287,781.28232 900.56327,704.80935 844.94297,647.38992 773.86164,609.3198 702.78175,571.2469 614.55269,552 509.38637,552 z"
     id="path4647"
     inkscape:connector-curvature="0" />
</svg>
