<?xml version="1.0" encoding="UTF-8" standalone="no"?>
<svg
   xmlns:dc="http://purl.org/dc/elements/1.1/"
   xmlns:cc="http://creativecommons.org/ns#"
   xmlns:rdf="http://www.w3.org/1999/02/22-rdf-syntax-ns#"
   xmlns:svg="http://www.w3.org/2000/svg"
   xmlns="http://www.w3.org/2000/svg"
   xmlns:sodipodi="http://sodipodi.sourceforge.net/DTD/sodipodi-0.dtd"
   xmlns:inkscape="http://www.inkscape.org/namespaces/inkscape"
   version="1.1"
   viewBox="0 -410 2048 2048"
   id="svg2"
   inkscape:version="0.48.3.1 r9886"
   width="100%"
   height="100%"
   sodipodi:docname="uniE046_TaijituSans.svg">
  <metadata
     id="metadata12">
    <rdf:RDF>
      <cc:Work
         rdf:about="">
        <dc:format>image/svg+xml</dc:format>
        <dc:type
           rdf:resource="http://purl.org/dc/dcmitype/StillImage" />
      </cc:Work>
    </rdf:RDF>
  </metadata>
  <defs
     id="defs10" />
  <sodipodi:namedview
     pagecolor="#ffffff"
     bordercolor="#666666"
     borderopacity="1"
     objecttolerance="10"
     gridtolerance="10"
     guidetolerance="10"
     inkscape:pageopacity="0"
     inkscape:pageshadow="2"
     inkscape:window-width="1920"
     inkscape:window-height="1018"
     id="namedview8"
     showgrid="false"
     showguides="true"
     inkscape:guide-bbox="true"
     inkscape:zoom="0.18"
     inkscape:cx="1114.0294"
     inkscape:cy="817.56759"
     inkscape:window-x="-8"
     inkscape:window-y="-8"
     inkscape:window-maximized="1"
     inkscape:current-layer="svg2" />
  <path
     style="fill:#000000;fill-opacity:1"
     d="M 1006.875 574 L 873.875 854 L 1022.875 854 L 1242.875 574 L 1006.875 574 z M 584 962 C 486.66667 962 398.16667 984 318.5 1028 C 238.83333 1072 179.5 1138.5 140.5 1227.5 C 101.5 1316.5 82 1417.3333 82 1530 C 82 1700.6667 127.83333 1833.6667 219.5 1929 C 311.16667 2024.3333 432 2072 582 2072 C 663.33333 2071.9997 737 2055.333 803 2022 C 872.65207 1986.8225 931.03957 1937.1558 978.1875 1873 C 989.00777 1888.1211 1004.6412 1906.6628 1025.0625 1928.625 C 1113.3178 2023.5417 1230.0467 2071 1375.25 2071 C 1491.1333 2071.0013 1588.8727 2036.5324 1668.4688 1967.5938 C 1748.068 1898.6511 1797.5264 1803.2344 1816.8438 1681.3438 L 1640 1658.375 C 1627.3526 1748.2891 1597.3838 1814.8936 1550.0938 1858.1875 C 1502.8004 1901.4792 1443.8527 1923.125 1373.25 1923.125 C 1285.3259 1923.1293 1214.0547 1890.8271 1159.4375 1826.2188 C 1113.0703 1771.3688 1086.3828 1688.4415 1079.375 1577.4375 L 1452.4375 1577.4375 L 1452.4375 1429.5938 L 1081.4688 1429.5938 C 1091.0798 1332.2784 1118.0694 1258.1739 1162.4375 1207.2812 C 1219.0388 1142.3445 1292.6327 1109.8757 1383.2188 1109.875 C 1443.1729 1109.8665 1494.2979 1127.8457 1536.5938 1163.8125 C 1578.8998 1199.7938 1608.3789 1253.4188 1625.0312 1324.6875 L 1799.8438 1297.6875 C 1779.2144 1190.449 1732.2667 1107.6884 1659 1049.4062 C 1585.7293 991.13545 1491.4793 962 1376.25 962 C 1284.9927 961.9984 1200.5654 983.47757 1122.9688 1026.4375 C 1062.687 1059.8219 1014.3643 1106.0097 978 1165 C 944 1106.333 892.83333 1057.833 824.5 1019.5 C 756.16667 981.16667 676 962 584 962 z M 577 1110 C 665.00033 1110 739.167 1144.1667 799.5 1212.5 C 859.83333 1280.8333 890 1381 890 1513 C 889.99967 1645.6667 859.333 1747.3333 798 1818 C 736.66667 1888.6667 663 1924 577 1924 C 478.99967 1924 399.333 1882 338 1798 C 290.66667 1733.3333 267 1639 267 1515 C 266.99967 1438.3333 279.833 1368 305.5 1304 C 331.16633 1240.0003 368.333 1191.667 417 1159 C 465.66667 1126.3333 519 1110 577 1110 z "
     transform="translate(0,-410)"
     id="path6" />
</svg>
