<?xml version="1.0" encoding="UTF-8" standalone="no"?>
<svg
   xmlns:dc="http://purl.org/dc/elements/1.1/"
   xmlns:cc="http://creativecommons.org/ns#"
   xmlns:rdf="http://www.w3.org/1999/02/22-rdf-syntax-ns#"
   xmlns:svg="http://www.w3.org/2000/svg"
   xmlns="http://www.w3.org/2000/svg"
   xmlns:sodipodi="http://sodipodi.sourceforge.net/DTD/sodipodi-0.dtd"
   xmlns:inkscape="http://www.inkscape.org/namespaces/inkscape"
   version="1.1"
   viewBox="0 -410 2048 2048"
   id="svg2"
   inkscape:version="0.48.3.1 r9886"
   width="100%"
   height="100%"
   sodipodi:docname="uniE045_TaijituSans.svg">
  <metadata
     id="metadata12">
    <rdf:RDF>
      <cc:Work
         rdf:about="">
        <dc:format>image/svg+xml</dc:format>
        <dc:type
           rdf:resource="http://purl.org/dc/dcmitype/StillImage" />
      </cc:Work>
    </rdf:RDF>
  </metadata>
  <defs
     id="defs10" />
  <sodipodi:namedview
     pagecolor="#ffffff"
     bordercolor="#666666"
     borderopacity="1"
     objecttolerance="10"
     gridtolerance="10"
     guidetolerance="10"
     inkscape:pageopacity="0"
     inkscape:pageshadow="2"
     inkscape:window-width="673"
     inkscape:window-height="480"
     id="namedview8"
     showgrid="false"
     inkscape:zoom="0.11523438"
     inkscape:cx="2377.7627"
     inkscape:cy="1024"
     inkscape:window-x="0"
     inkscape:window-y="0"
     inkscape:window-maximized="0"
     inkscape:current-layer="svg2" />
  <path
     style="fill:currentColor"
     d="M 549 574 L 416 854 L 565 854 L 785 574 L 549 574 z M 520 962 C 436 962 359 983.66667 289 1027 C 144.33333 1117 72 1277 72 1507 C 72 1658.3333 110.33333 1787 187 1893 C 272.33333 2012.3333 388 2072 534 2072 C 654 2072 746.66667 2026.3333 812 1935 L 812 2048 L 992 2048 L 992 986 L 830 986 L 830 1128 C 754.66667 1017.3333 651.33333 962 520 962 z M 537 1104 C 638.33333 1104 715 1152.3333 767 1249 C 809 1326.3333 830 1420 830 1530 C 830 1634.6667 809.66667 1722.3333 769 1793 C 719 1880.3333 645.66667 1924 549 1924 C 448.33333 1924 372 1878.3333 320 1787 C 278 1713 257 1622 257 1514 C 257 1404.6667 276 1314 314 1242 C 362.66667 1150 437 1104 537 1104 z "
     transform="translate(0,-410)"
     id="path6" />
</svg>
