<?xml version="1.0" encoding="UTF-8" standalone="no"?>
<svg
   xmlns:dc="http://purl.org/dc/elements/1.1/"
   xmlns:cc="http://creativecommons.org/ns#"
   xmlns:rdf="http://www.w3.org/1999/02/22-rdf-syntax-ns#"
   xmlns:svg="http://www.w3.org/2000/svg"
   xmlns="http://www.w3.org/2000/svg"
   xmlns:sodipodi="http://sodipodi.sourceforge.net/DTD/sodipodi-0.dtd"
   xmlns:inkscape="http://www.inkscape.org/namespaces/inkscape"
   version="1.1"
   viewBox="0 -410 2048 2048"
   id="svg2"
   inkscape:version="0.48.3.1 r9886"
   width="100%"
   height="100%"
   sodipodi:docname="uniE021_TaijituSans.svg">
  <metadata
     id="metadata12">
    <rdf:RDF>
      <cc:Work
         rdf:about="">
        <dc:format>image/svg+xml</dc:format>
        <dc:type
           rdf:resource="http://purl.org/dc/dcmitype/StillImage" />
      </cc:Work>
    </rdf:RDF>
  </metadata>
  <defs
     id="defs10" />
  <sodipodi:namedview
     pagecolor="#ffffff"
     bordercolor="#666666"
     borderopacity="1"
     objecttolerance="10"
     gridtolerance="10"
     guidetolerance="10"
     inkscape:pageopacity="0"
     inkscape:pageshadow="2"
     inkscape:window-width="1920"
     inkscape:window-height="1018"
     id="namedview8"
     showgrid="false"
     inkscape:zoom="0.11523438"
     inkscape:cx="1024"
     inkscape:cy="1024"
     inkscape:window-x="-8"
     inkscape:window-y="-8"
     inkscape:window-maximized="1"
     inkscape:current-layer="svg2" />
  <path
     style="font-size:144px;font-style:normal;font-variant:normal;font-weight:normal;font-stretch:normal;text-align:start;line-height:125%;letter-spacing:0px;word-spacing:0px;writing-mode:lr-tb;text-anchor:start;fill:#000000;fill-opacity:1;stroke:none;font-family:Sans;-inkscape-font-specification:Sans"
     d="M 796 212 L 663 492 L 812 492 L 1032 212 L 796 212 z M 781.65625 557 C 637.65483 557.00142 513.65625 592.3349 409.65625 663 C 305.65625 733.66809 228.4887 824.00121 178.15625 934 C 127.82239 1044.0011 102.65625 1165.6677 102.65625 1299 C 95.321855 1517.0006 148.15643 1700.5003 261.15625 1849.5 C 374.15607 1998.5 546.32185 2073 777.65625 2073 C 1100.9886 2073 1304.987 1911.0001 1389.6562 1587 L 1202.6562 1538 C 1143.3226 1786.0003 996.98886 1910.0002 763.65625 1910 C 632.32256 1910.0002 524.65554 1862.5002 440.65625 1767.5 C 356.65554 1672.5004 310.98923 1542.6672 303.65625 1378 L 848.65625 1378 L 848.65625 1205 L 311.65625 1205 C 319.65625 1058.3343 364.15643 942.00106 445.15625 856 C 526.15608 770.00121 637.99029 727.00143 780.65625 727 C 991.98993 727.00143 1125.3219 829.33455 1180.6562 1034 L 1370.6562 984 C 1334.6556 850.00121 1265.4881 745.33468 1163.1562 670 C 1060.8218 594.66816 933.65483 557.001 781.65625 557 z "
     transform="translate(0,-410)"
     id="path2994" />
</svg>
