<?xml version="1.0" standalone="no"?>
<!DOCTYPE svg PUBLIC "-//W3C//DTD SVG 1.1//EN" "http://www.w3.org/Graphics/SVG/1.1/DTD/svg11.dtd" >
<svg xmlns="http://www.w3.org/2000/svg" xmlns:xlink="http://www.w3.org/1999/xlink" version="1.1" viewBox="0 -410 2048 2048">
  <g transform="matrix(1 0 0 -1 0 1638)">
   <path fill="currentColor"
d="M1045 873h420v-37q-87 -7 -128.5 -38.5t-129.5 -190.5t-198 -297q89 -104 159 -145.5t141 -41.5q69 0 117 37.5t68 110.5l37 -27q-37 -141 -119 -208t-191 -67q-82 0 -166.5 44.5t-184.5 150.5q-124 -110 -223.5 -152.5t-212.5 -42.5q-165 0 -262 88t-97 210
q0 121 87 241.5t327 249.5q-47 104 -64 170.5t-17 127.5q0 171 126 261q98 70 223 70q119 0 194 -70.5t75 -173.5q0 -106 -72.5 -186t-256.5 -175q127 -226 265 -414q176 210 176 354q0 46 -30 82q-22 27 -63 32v37zM663 847q124 59 185.5 134t61.5 167q0 72 -44.5 119
t-110.5 47q-87 0 -131.5 -60.5t-44.5 -118.5q0 -49 17 -109.5t67 -178.5zM818 222q-132 180 -183 263t-112 206q-120 -69 -180.5 -152t-60.5 -180q0 -107 69 -188t186 -81q63 0 121.5 25t159.5 107z" />
  </g>

</svg>
