<?xml version="1.0" standalone="no"?>
<!DOCTYPE svg PUBLIC "-//W3C//DTD SVG 1.1//EN" "http://www.w3.org/Graphics/SVG/1.1/DTD/svg11.dtd" >
<svg xmlns="http://www.w3.org/2000/svg" xmlns:xlink="http://www.w3.org/1999/xlink" version="1.1" viewBox="0 -410 2048 2048">
  <g transform="matrix(1 0 0 -1 0 1638)">
   <path fill="currentColor"
d="M889 1356l-78 -170h-408l-89 -182q265 -39 420 -197q133 -136 133 -320q0 -107 -43.5 -198t-109.5 -155t-147 -103q-115 -55 -236 -55q-122 0 -177.5 41.5t-55.5 91.5q0 28 23 49.5t58 21.5q26 0 45.5 -8t66.5 -41q75 -52 152 -52q117 0 205.5 88.5t88.5 215.5
q0 123 -79 229.5t-218 164.5q-109 45 -297 52l260 527h486z" />
  </g>

</svg>
