<?xml version="1.0" standalone="no"?>
<!DOCTYPE svg PUBLIC "-//W3C//DTD SVG 1.1//EN" "http://www.w3.org/Graphics/SVG/1.1/DTD/svg11.dtd" >
<svg xmlns="http://www.w3.org/2000/svg" xmlns:xlink="http://www.w3.org/1999/xlink" version="1.1" viewBox="0 -442 2048 2048">
  <g transform="matrix(1 0 0 -1 0 1638)">
   <path fill="currentColor"
d="M1408 958l-117 -399q-65 -224 -79 -284t-14 -96q0 -32 21.5 -54t53.5 -22q73 0 175.5 73t175.5 237t73 342q0 171 -82.5 316t-233 222.5t-332.5 77.5q-231 0 -429 -122.5t-313.5 -352.5t-115.5 -478q0 -230 101.5 -418t285.5 -284.5t396 -96.5q263 0 475.5 141t328.5 412
h58q-90 -274 -327 -444t-540 -170q-238 0 -442 112.5t-317 319t-113 454.5q0 264 124 492.5t347.5 357t474.5 128.5q207 0 373.5 -85.5t253.5 -250t87 -349.5q0 -183 -81.5 -362.5t-207.5 -261.5t-263 -82q-76 0 -114.5 36t-38.5 101q0 56 18 147q-148 -179 -237 -232
t-157 -53q-71 0 -126 63.5t-55 169.5q0 145 94.5 325t250.5 293q115 83 206 83q67 0 111.5 -34.5t60.5 -103.5l33 110zM1057 917q-75 0 -152 -79q-113 -116 -193 -313q-59 -144 -59 -232q0 -63 35.5 -102.5t79.5 -39.5q58 0 122 44t134 135.5t102 183.5q56 159 56 259
q0 66 -36.5 105t-88.5 39z" />
  </g>

</svg>
