<?xml version="1.0" standalone="no"?>
<!DOCTYPE svg PUBLIC "-//W3C//DTD SVG 1.1//EN" "http://www.w3.org/Graphics/SVG/1.1/DTD/svg11.dtd" >
<svg xmlns="http://www.w3.org/2000/svg" xmlns:xlink="http://www.w3.org/1999/xlink" version="1.1" viewBox="0 -410 2048 2048">
  <g transform="matrix(1 0 0 -1 0 1638)">
   <path fill="currentColor"
d="M836 751l291 -434q121 -180 179.5 -227.5t148.5 -52.5v-37h-582v37q58 1 86 12q21 9 34.5 27.5t13.5 37.5q0 23 -9 46q-7 17 -55 88l-230 348l-284 -364q-45 -58 -54 -77.5t-9 -40.5q0 -32 27 -53t103 -24v-37h-481v37q51 5 88 21q62 26 118 70t128 135l320 404l-267 391
q-109 159 -185 208.5t-175 52.5v37h627v-37q-80 -3 -109.5 -26t-29.5 -51q0 -37 48 -108l208 -311l241 305q42 54 51.5 74t9.5 41t-12 37q-15 21 -38 29.5t-95 9.5v37h481v-37q-57 -3 -93 -18q-54 -23 -99 -62t-127 -144z" />
  </g>

</svg>
