<?xml version="1.0" standalone="no"?>
<!DOCTYPE svg PUBLIC "-//W3C//DTD SVG 1.1//EN" "http://www.w3.org/Graphics/SVG/1.1/DTD/svg11.dtd" >
<svg xmlns="http://www.w3.org/2000/svg" xmlns:xlink="http://www.w3.org/1999/xlink" version="1.1" viewBox="0 -410 2048 2048">
  <g transform="matrix(1 0 0 -1 0 1638)">
   <path fill="currentColor"
d="M297 1422q42 0 71.5 -29.5t29.5 -71.5t-29.5 -72t-71.5 -30t-72 30t-30 72t29.5 71.5t72.5 29.5zM380 943v-736q0 -86 12.5 -114.5t37 -42.5t89.5 -14v-36h-445v36q67 0 90 13t36.5 43t13.5 115v353q0 149 -9 193q-7 32 -22 44.5t-41 12.5q-28 0 -68 -15l-14 36l276 112
h44z" />
  </g>

</svg>
