<?xml version="1.0" standalone="no"?>
<!DOCTYPE svg PUBLIC "-//W3C//DTD SVG 1.1//EN" "http://www.w3.org/Graphics/SVG/1.1/DTD/svg11.dtd" >
<svg xmlns="http://www.w3.org/2000/svg" xmlns:xlink="http://www.w3.org/1999/xlink" version="1.1" viewBox="0 -410 2048 2048">
  <g transform="matrix(1 0 0 -1 0 1638)">
   <path fill="currentColor"
d="M512 943q208 0 334 -158q107 -135 107 -310q0 -123 -59 -249t-162.5 -190t-230.5 -64q-207 0 -329 165q-103 139 -103 312q0 126 62.5 250.5t164.5 184t216 59.5zM481 878q-53 0 -106.5 -31.5t-86.5 -110.5t-33 -203q0 -200 79.5 -345t209.5 -145q97 0 160 80t63 275
q0 244 -105 384q-71 96 -181 96z" />
  </g>

</svg>
