<?xml version="1.0" standalone="no"?>
<!DOCTYPE svg PUBLIC "-//W3C//DTD SVG 1.1//EN" "http://www.w3.org/Graphics/SVG/1.1/DTD/svg11.dtd" >
<svg xmlns="http://www.w3.org/2000/svg" xmlns:xlink="http://www.w3.org/1999/xlink" version="1.1" viewBox="0 -442 2048 2048">
  <g transform="matrix(1 0 0 -1 0 1638)">
   <path fill="currentColor"
d="M177 1387v35q167 -22 271.5 -134.5t104.5 -250.5q0 -72 -23 -167t-23 -148q0 -72 60.5 -134.5t167.5 -76.5v-41q-107 -14 -167.5 -76.5t-60.5 -134.5q0 -53 23 -148.5t23 -167.5q0 -136 -104.5 -249t-271.5 -136v35q117 29 171.5 92t54.5 140q0 59 -23 155.5t-23 163.5
q0 102 74.5 197t221.5 147q-144 53 -220 150t-76 198q0 68 23 164.5t23 155.5q0 76 -54.5 139.5t-171.5 91.5z" />
  </g>

</svg>
