<?xml version="1.0" standalone="no"?>
<!DOCTYPE svg PUBLIC "-//W3C//DTD SVG 1.1//EN" "http://www.w3.org/Graphics/SVG/1.1/DTD/svg11.dtd" >
<svg xmlns="http://www.w3.org/2000/svg" xmlns:xlink="http://www.w3.org/1999/xlink" version="1.1" viewBox="-24 -410 2048 2048">
  <g transform="matrix(1 0 0 -1 0 1638)">
   <path fill="currentColor"
d="M1027 1282v-536h257q115 0 162 43t55 154h36v-471h-36q-12 100 -32.5 134.5t-68.5 55.5q-23 11 -116 11h-257v-449q0 -91 7 -108.5t29 -29.5t79 -12h182q109 0 168 18t114 70q73 68 120 179h38l-108 -341h-1018v37h51q83 0 122 49q24 32 24 153v286h-396l-124 -233
q-70 -132 -70 -173q0 -28 30.5 -51.5t126.5 -30.5v-37h-426v37q44 1 75.5 19t68.5 65t94 153l412 771q77 143 77 193q0 32 -27 50q-34 25 -146 31v37h1111l15 -298h-34q-13 103 -50 157q-27 39 -78 57q-29 10 -136 10h-331zM835 1282l-357 -684h357v684z" />
  </g>

</svg>
