<?xml version="1.0" encoding="UTF-8" standalone="no"?>
<svg
   xmlns:dc="http://purl.org/dc/elements/1.1/"
   xmlns:cc="http://creativecommons.org/ns#"
   xmlns:rdf="http://www.w3.org/1999/02/22-rdf-syntax-ns#"
   xmlns:svg="http://www.w3.org/2000/svg"
   xmlns="http://www.w3.org/2000/svg"
   xmlns:sodipodi="http://sodipodi.sourceforge.net/DTD/sodipodi-0.dtd"
   xmlns:inkscape="http://www.inkscape.org/namespaces/inkscape"
   version="1.1"
   viewBox="0 -410 2048 2048"
   id="svg2997"
   inkscape:version="0.48.5 r10040"
   width="100%"
   height="100%"
   sodipodi:docname="e005.svg">
  <metadata
     id="metadata3007">
    <rdf:RDF>
      <cc:Work
         rdf:about="">
        <dc:format>image/svg+xml</dc:format>
        <dc:type
           rdf:resource="http://purl.org/dc/dcmitype/StillImage" />
      </cc:Work>
    </rdf:RDF>
  </metadata>
  <defs
     id="defs3005" />
  <sodipodi:namedview
     pagecolor="#ffffff"
     bordercolor="#666666"
     borderopacity="1"
     objecttolerance="10"
     gridtolerance="10"
     guidetolerance="10"
     inkscape:pageopacity="0"
     inkscape:pageshadow="2"
     inkscape:window-width="1366"
     inkscape:window-height="705"
     id="namedview3003"
     showgrid="false"
     inkscape:zoom="0.2"
     inkscape:cx="747.75912"
     inkscape:cy="1074.0786"
     inkscape:window-x="-8"
     inkscape:window-y="-8"
     inkscape:window-maximized="1"
     inkscape:current-layer="svg2997" />
  <path
     style="fill:currentColor"
     d="M 630 661 C 514.6663 661.001 419.6664 696.16802 345 766.5 C 270.3332 836.83454 232.9999 920.66779 233 1018 L 233 1801 C 233 1890.3333 221.33333 1947 198 1971 C 174.66667 1995 121 2008.3333 37 2011 L 37 2048 L 619 2048 L 619 2011 C 535.66667 2008.3333 482.5 1995 459.5 1971 C 436.5 1947 425 1890.3333 425 1801 L 425 1058 C 424.98438 1055.1875 424.99289 1052.3782 425 1049.5938 C 425.44797 874.17216 471.54688 754.78125 632 741 C 693.3328 741.001 752.666 756.66796 810 788 C 867.3326 819.33456 911.4992 861.66785 942.5 915 C 973.4991 968.33441 994.9991 1040.001 1007 1130 L 1044 1130 L 1044 661 L 1007 661 C 1000.3325 692.33469 991.4991 713.168 980.5 723.5 C 969.4992 733.83465 955.3325 739.001 938 739 C 922.6659 739.001 896.3326 730.66798 859 714 C 778.3327 678.66804 701.9994 661.001 630 661 z "
     transform="translate(0,-410)"
     id="path3001" />
</svg>
