<?xml version="1.0" standalone="no"?>
<!DOCTYPE svg PUBLIC "-//W3C//DTD SVG 1.1//EN" "http://www.w3.org/Graphics/SVG/1.1/DTD/svg11.dtd" >
<svg xmlns="http://www.w3.org/2000/svg" xmlns:xlink="http://www.w3.org/1999/xlink" version="1.1" viewBox="0 -410 2048 2048">
  <g transform="matrix(1 0 0 -1 0 1638)">
   <path fill="currentColor"
d="M1400 686q0 -296 -184 -502q-191 -215 -483 -215q-296 0 -483 211q-178 203 -178 503q0 323 220 527q191 177 457 177q282 0 470 -212q181 -203 181 -489zM1170 727q-10 250 -99 399q-113 188 -341 188q-220 0 -332 -192q-89 -154 -96 -395h868zM1171 653h-870
q7 -308 142 -477q108 -136 288 -136q236 0 349 199q91 160 91 414z" />
  </g>

</svg>
