<?xml version="1.0" standalone="no"?>
<!DOCTYPE svg PUBLIC "-//W3C//DTD SVG 1.1//EN" "http://www.w3.org/Graphics/SVG/1.1/DTD/svg11.dtd" >
<svg xmlns="http://www.w3.org/2000/svg" xmlns:xlink="http://www.w3.org/1999/xlink" version="1.1" viewBox="0 -410 2048 2048">
  <g transform="matrix(1 0 0 -1 0 1638)">
   <path fill="currentColor"
d="M420 1048h74q150 0 224 -12q108 -19 179.5 -64.5t117 -121.5t45.5 -170q0 -77 -29 -142.5t-78 -112.5t-111 -75t-161 -41q-36 -5 -191 -5h-70v-61q0 -129 34.5 -167.5t118.5 -38.5h41v-37h-578v37h38q93 0 133 56q20 28 20 147v868q0 114 -11 140.5t-48.5 48.5t-91.5 22
h-40v37h578v-37h-40q-44 0 -94 -23q-30 -14 -45 -49t-15 -134v-65zM420 970v-595h44q122 0 190 28q90 38 133 109t43 165q0 75 -31 138t-81.5 98.5t-112.5 48.5q-40 8 -137 8h-48z" />
  </g>

</svg>
