<?xml version="1.0" standalone="no"?>
<!DOCTYPE svg PUBLIC "-//W3C//DTD SVG 1.1//EN" "http://www.w3.org/Graphics/SVG/1.1/DTD/svg11.dtd" >
<svg xmlns="http://www.w3.org/2000/svg" xmlns:xlink="http://www.w3.org/1999/xlink" version="1.1" viewBox="0 -410 2048 2048">
  <g transform="matrix(1 0 0 -1 0 1638)">
   <path fill="currentColor"
d="M937 454h-525l-92 -214q-34 -79 -34 -118q0 -31 29.5 -54.5t127.5 -30.5v-37h-427v37q85 15 110 39q51 48 113 195l477 1116h35l472 -1128q57 -136 103.5 -176.5t129.5 -45.5v-37h-535v37q81 4 109.5 27t28.5 56q0 44 -40 139zM909 528l-230 548l-236 -548h466zM959 1797
l-295 -345h-34l105 345h224z" />
  </g>

</svg>
