<?xml version="1.0" standalone="no"?>
<!DOCTYPE svg PUBLIC "-//W3C//DTD SVG 1.1//EN" "http://www.w3.org/Graphics/SVG/1.1/DTD/svg11.dtd" >
<svg xmlns="http://www.w3.org/2000/svg" xmlns:xlink="http://www.w3.org/1999/xlink" version="1.1" viewBox="0 -410 2048 2048">
  <g transform="matrix(1 0 0 -1 0 1638)">
   <path fill="currentColor"
d="M428 1282v-536h298q116 0 155 35q52 46 58 162h37v-472h-37q-14 99 -28 127q-18 35 -59 55t-126 20h-298v-447q0 -90 8 -109.5t28 -31t76 -11.5h230q115 0 167 16t100 63q62 62 127 187h40l-117 -340h-1045v37h48q48 0 91 23q32 16 43.5 48t11.5 131v881q0 129 -26 159
q-36 40 -120 40h-48v37h1045l15 -297h-39q-21 107 -46.5 147t-75.5 61q-40 15 -141 15h-372zM853 1797l-295 -345h-34l105 345h224z" />
  </g>

</svg>
