<?xml version="1.0" standalone="no"?>
<!DOCTYPE svg PUBLIC "-//W3C//DTD SVG 1.1//EN" "http://www.w3.org/Graphics/SVG/1.1/DTD/svg11.dtd" >
<svg xmlns="http://www.w3.org/2000/svg" xmlns:xlink="http://www.w3.org/1999/xlink" version="1.1" viewBox="0 -410 2048 2048">
  <g transform="matrix(1 0 0 -1 0 1638)">
   <path fill="currentColor"
d="M749 1387q264 0 457.5 -200.5t193.5 -500.5q0 -309 -195 -513t-472 -204q-280 0 -470.5 199t-190.5 515q0 323 220 527q191 177 457 177zM730 1314q-182 0 -292 -135q-137 -168 -137 -492q0 -332 142 -511q109 -136 288 -136q191 0 315.5 149t124.5 470q0 348 -137 519
q-110 136 -304 136zM957 1797l-295 -345h-34l105 345h224z" />
  </g>

</svg>
