<?xml version="1.0" standalone="no"?>
<!DOCTYPE svg PUBLIC "-//W3C//DTD SVG 1.1//EN" "http://www.w3.org/Graphics/SVG/1.1/DTD/svg11.dtd" >
<svg xmlns="http://www.w3.org/2000/svg" xmlns:xlink="http://www.w3.org/1999/xlink" version="1.1" viewBox="0 -410 2048 2048">
  <g transform="matrix(1 0 0 -1 0 1638)">
   <path fill="currentColor"
d="M490 943q107 0 186 -44q82.2334 -45.8013 130.344 -119.688q10.8711 15.0511 22.6562 28.6875q116.673 135 280.125 135q122.575 0 201.562 -71.5q78.9932 -71.5005 79 -148.5q0 -37.9995 -22.25 -61.5q-22.2451 -23.5005 -62.1875 -23.5q-53.5693 0 -80.8125 38
q-15.4449 21.0135 -20.4375 80q-4.99365 58.9995 -36.7812 90q-31.7783 30 -88.0625 30q-90.7969 0 -146.188 -74q-73.5454 -97.9995 -73.5312 -259q0 -11.3165 0.375 -23h299.25v-65h-294q14.6484 -110.808 67.4688 -201.5q73.0913 -125.5 197.469 -125.5
q88.9922 0 159.812 67q49.9462 46.0081 97.1562 167l26.3125 -14q-33.5947 -181 -131.656 -278.5q-98.0596 -97.5 -217 -97.5q-141.642 0 -246.969 131q-9.80816 12.1989 -18.9688 25.7812q-60.8099 -76.8623 -138.188 -116.281q-79.5 -40.5 -176.5 -40.5
q-176 0 -296.5 128.5q-120.5 128.5 -120.5 342.5q0 229 123.5 364.5q123.5 135.5 299.5 135.5zM453 888q-36 0 -85.5 -26.5q-49.5 -26.5005 -76.5 -90.5q-37.0005 -82.9995 -37 -232q0 -258 102 -406q61.9995 -90 153 -90q88.9995 0 147.5 74q58.5 73.9995 58.5 261
q0 233 -67.5 371.5q-67.5 138.5 -194.5 138.5z" />
  </g>

</svg>
