<?xml version="1.0" encoding="UTF-8" standalone="no"?>
<svg
   xmlns:dc="http://purl.org/dc/elements/1.1/"
   xmlns:cc="http://creativecommons.org/ns#"
   xmlns:rdf="http://www.w3.org/1999/02/22-rdf-syntax-ns#"
   xmlns:svg="http://www.w3.org/2000/svg"
   xmlns="http://www.w3.org/2000/svg"
   xmlns:sodipodi="http://sodipodi.sourceforge.net/DTD/sodipodi-0.dtd"
   xmlns:inkscape="http://www.inkscape.org/namespaces/inkscape"
   version="1.1"
   viewBox="0 -410 2048 2048"
   id="svg4373"
   inkscape:version="0.48.5 r10040"
   width="100%"
   height="100%"
   sodipodi:docname="e029_TaijituSerif.svg">
  <metadata
     id="metadata4383">
    <rdf:RDF>
      <cc:Work
         rdf:about="">
        <dc:format>image/svg+xml</dc:format>
        <dc:type
           rdf:resource="http://purl.org/dc/dcmitype/StillImage" />
      </cc:Work>
    </rdf:RDF>
  </metadata>
  <defs
     id="defs4381" />
  <sodipodi:namedview
     pagecolor="#ffffff"
     bordercolor="#666666"
     borderopacity="1"
     objecttolerance="10"
     gridtolerance="10"
     guidetolerance="10"
     inkscape:pageopacity="0"
     inkscape:pageshadow="2"
     inkscape:window-width="1366"
     inkscape:window-height="705"
     id="namedview4379"
     showgrid="false"
     inkscape:zoom="0.2"
     inkscape:cx="652.45386"
     inkscape:cy="422.49038"
     inkscape:window-x="-8"
     inkscape:window-y="-8"
     inkscape:window-maximized="1"
     inkscape:current-layer="svg4373" />
  <path
     style="fill:currentColor"
     d="m 440,1104 c -70,0 -131.16667,12 -183.5,36 -52.33333,24 -90.66667,53.3333 -115,88 -24.33333,34.6667 -36.5,69.3333 -36.5,104 0,26.6667 10,50.6667 30,72 14,15.3333 34,23 60,23 18,0 33,-4.3333 45,-13 12,-8.6667 20.83333,-21.3333 26.5,-38 5.66667,-16.6667 8.5,-53 8.5,-109 0,-26.6667 12.66667,-51 38,-73 24.66667,-21.3333 59,-32 103,-32 44.66667,0 80.33333,14.8333 107,44.5 26.66667,29.6667 40,80.5 40,152.5 l 0,92 c -80,28 -172,68.6667 -276,122 -84.66667,43.3333 -141.5,85.3333 -170.5,126 -29,40.6667 -43.5,90 -43.5,148 0,64 21.5,118.1667 64.5,162.5 43,44.3333 95.83333,66.5 158.5,66.5 37.33333,0 73.66667,-5.3333 109,-16 35.33333,-10.6667 68.66667,-25 100,-43 13.33333,-7.3333 39.33333,-26.6667 78,-58 28.66667,-22.6667 47.54285,-36.3373 55,-43 l 8.5625,-7.6562 c 8.59485,12.7679 17.86046,24.9838 27.78125,36.6562 74.22798,87.3333 161.23867,131 261.0625,131 83.82645,0 160.29745,-32.5 229.40625,-97.5 69.1085,-65 115.511,-157.8333 139.1875,-278.5 l -27.8438,-14 c -33.2742,80.6663 -67.4928,136.333 -102.6874,167 -49.9122,44.6667 -106.228,67 -168.9376,67 -87.66544,0 -157.26923,-41.8333 -208.7812,-125.5 -37.20467,-60.4287 -60.95364,-127.5953 -71.28125,-201.5 l 310.78125,0 0,-65 -316.375,0 c -0.25995,-7.671 -0.375,-15.3377 -0.375,-23 0,-107.3337 25.91839,-193.667 77.75,-259 39.03368,-49.3333 90.54162,-74 154.53125,-74 39.67389,0 70.69765,10 93.09375,30 22.3961,20.667 35.3553,50.667 38.875,90 3.5197,39.3333 10.7158,66 21.5938,80 19.1971,25.3333 47.6838,38 85.4374,38 28.1558,3e-4 50.0729,-7.833 65.75,-23.5 15.6775,-15.667 23.5,-36.167 23.5,-61.5 0,-51.333 -27.8289,-100.833 -83.5,-148.5 -55.6709,-47.6667 -126.7077,-71.5 -213.0937,-71.5 -105.17179,0 -196.58531,37.5253 -274.28125,112.5625 C 704.34663,1184.734 665.29452,1161.0787 627,1139.5 585,1115.8333 522.66667,1104 440,1104 z m 136,642.5 c 8.66667,48.3333 20,87.5 34,117.5 -54.66667,42.6667 -96.5,70.8333 -125.5,84.5 -29,13.6667 -56.5,20.5 -82.5,20.5 -44,0 -81.83333,-16.6667 -113.5,-50 -31.66667,-33.3333 -47.5,-76.3333 -47.5,-129 0,-59.3333 24.66667,-108 74,-146 75.33333,-57.3333 158,-100 248,-128 l 0,82 c 0,53 4.33333,100.1667 13,148.5 z"
     transform="translate(0,-410)"
     id="path4377"
     inkscape:connector-curvature="0"
     sodipodi:nodetypes="sssscsssscsssccsssssccccssscccssccccscscsccsssscssscssssccss" />
</svg>
