<?xml version="1.0" standalone="no"?>
<!DOCTYPE svg PUBLIC "-//W3C//DTD SVG 1.1//EN" "http://www.w3.org/Graphics/SVG/1.1/DTD/svg11.dtd" >
<svg xmlns="http://www.w3.org/2000/svg" xmlns:xlink="http://www.w3.org/1999/xlink" version="1.1" viewBox="0 -410 2048 2048">
  <g transform="matrix(1 0 0 -1 0 1638)">
   <path fill="currentColor"
d="M150 654q115 289 388 289q191 0 312.5 -143t121.5 -327q0 -190 -123 -345.5t-333 -155.5q-214 0 -326 177.5t-112 432.5q0 198 58 369.5t122 256.5t148 124t297 41q153 2 185 9t61 40h39q-33 -98 -80 -140t-101 -56.5t-193 -18.5q-150 -4 -207.5 -22.5t-119.5 -90
t-96.5 -187.5t-40.5 -253zM504 875q-100 0 -164 -83t-64 -261q0 -241 86 -365t199 -124q104 0 163.5 86.5t59.5 276.5q0 202 -78 336t-202 134z" />
  </g>

</svg>
