<?xml version="1.0" standalone="no"?>
<!DOCTYPE svg PUBLIC "-//W3C//DTD SVG 1.1//EN" "http://www.w3.org/Graphics/SVG/1.1/DTD/svg11.dtd" >
<svg xmlns="http://www.w3.org/2000/svg" xmlns:xlink="http://www.w3.org/1999/xlink" version="1.1" viewBox="0 -442 2048 2048">
  <g transform="matrix(1 0 0 -1 0 1638)">
   <path fill="currentColor"
d="M877 1q0 -191 -108 -313q-113 -130 -304 -130q-96 0 -178 44q-93 50 -93 125q0 30 26 56.5t56 26.5q51 0 111 -88q62 -92 157 -92q167 0 167 366v102q-124 -126 -269 -126q-170 0 -277 143q-97 130 -97 305q0 201 119 356q129 168 324 168q109 0 185 -56l137 55h44v-942z
M711 164v396q0 322 -212 322q-127 0 -195 -136q-53 -107 -53 -247q0 -154 64 -272q78 -145 220 -145q94 0 176 82z" />
  </g>

</svg>
