<?xml version="1.0" encoding="UTF-8" standalone="no"?>
<svg
   xmlns:dc="http://purl.org/dc/elements/1.1/"
   xmlns:cc="http://creativecommons.org/ns#"
   xmlns:rdf="http://www.w3.org/1999/02/22-rdf-syntax-ns#"
   xmlns:svg="http://www.w3.org/2000/svg"
   xmlns="http://www.w3.org/2000/svg"
   xmlns:sodipodi="http://sodipodi.sourceforge.net/DTD/sodipodi-0.dtd"
   xmlns:inkscape="http://www.inkscape.org/namespaces/inkscape"
   version="1.1"
   viewBox="0 -410 2048 2048"
   id="svg2"
   inkscape:version="0.48.3.1 r9886"
   width="100%"
   height="100%"
   sodipodi:docname="uniE02D_TaijituSerif.svg">
  <metadata
     id="metadata12">
    <rdf:RDF>
      <cc:Work
         rdf:about="">
        <dc:format>image/svg+xml</dc:format>
        <dc:type
           rdf:resource="http://purl.org/dc/dcmitype/StillImage" />
      </cc:Work>
    </rdf:RDF>
  </metadata>
  <defs
     id="defs10" />
  <sodipodi:namedview
     pagecolor="#ffffff"
     bordercolor="#666666"
     borderopacity="1"
     objecttolerance="10"
     gridtolerance="10"
     guidetolerance="10"
     inkscape:pageopacity="0"
     inkscape:pageshadow="2"
     inkscape:window-width="1920"
     inkscape:window-height="1018"
     id="namedview8"
     showgrid="false"
     inkscape:zoom="0.62"
     inkscape:cx="1024"
     inkscape:cy="1024"
     inkscape:window-x="-8"
     inkscape:window-y="-8"
     inkscape:window-maximized="1"
     inkscape:current-layer="svg2" />
  <g
     transform="matrix(1 0 0 -1 0 1638)"
     id="g4">
    <path
       d="M 852,857.5 C 916.66667,725.16667 949,597.33333 949,474 949,381.33333 929.83333,296.16667 891.5,218.5 853.16667,140.83333 799.33333,80.333333 730,37 660.66667,-6.3333333 583.66667,-28 499,-28 379.66667,-28 278,16.5 194,105.5 110,194.5 68,306.33333 68,441 c 0,140.66667 46,262.33333 138,365 78.66667,86 172.66667,129 282,129 32.66667,0 62,-4.33333 88,-13 20.66667,-6.66667 47.66667,-22 81,-46 -53.33333,110 -113.7948,209.5666 -210,319 -63.84293,72.6213 -99.16667,102.1667 -121.5,120.5 -22.33333,18.3333 -51.83333,39.5 -88.5,63.5 l 27,43 c 80,-40 165.20912,-88.0698 274,-178 C 694.64056,1114.5157 787.33333,989.83333 852,857.5 z M 479,874 c -64,0 -117.66667,-27 -161,-81 -43.33333,-54 -65,-145.66667 -65,-275 0,-90.66667 13.5,-174.16667 40.5,-250.5 27,-76.33333 63.5,-133 109.5,-170 46,-37 94,-55.5 144,-55.5 60.66667,0 112,26.333333 154,79 42,52.66667 63,138 63,256 0,150 -26.33333,270.33333 -79,361 -52.66667,90.66667 -121.33333,136 -206,136 z"
       id="path6"
       inkscape:connector-curvature="0"
       style="fill:currentColor"
       sodipodi:nodetypes="ssssssscsccssccssssssssssss" />
  </g>
</svg>
