<?xml version="1.0" standalone="no"?>
<!DOCTYPE svg PUBLIC "-//W3C//DTD SVG 1.1//EN" "http://www.w3.org/Graphics/SVG/1.1/DTD/svg11.dtd" >
<svg xmlns="http://www.w3.org/2000/svg" xmlns:xlink="http://www.w3.org/1999/xlink" version="1.1" viewBox="0 -410 2048 2048">
  <g transform="matrix(1 0 0 -1 0 1638)">
   <path fill="currentColor"
d="M84 629v287h42q18 -16 40 -16q17 0 74 16q95 27 155 27q132 0 220.5 -61t88.5 -162q0 -155 -235 -225q274 -57 274 -257q0 -105 -88 -185.5t-256 -80.5q-110 0 -193.5 39.5t-181.5 133.5l26 26q164 -127 311 -127q84 0 138 57t54 148q0 199 -257 211v58q121 0 175.5 64.5
t54.5 138.5q0 65 -46.5 114t-123.5 49q-178 0 -236 -255h-36z" />
  </g>

</svg>
