<?xml version="1.0" standalone="no"?>
<!DOCTYPE svg PUBLIC "-//W3C//DTD SVG 1.1//EN" "http://www.w3.org/Graphics/SVG/1.1/DTD/svg11.dtd" >
<svg xmlns="http://www.w3.org/2000/svg" xmlns:xlink="http://www.w3.org/1999/xlink" version="1.1" viewBox="0 -410 2048 2048">
  <g transform="matrix(1 0 0 -1 0 1638)">
   <path fill="currentColor"
d="M515 0h-461v37q68 3 80 5q43 9 61 44q16 31 16 129v486q0 73 -3 92q-9 58 -46 73q-26 11 -108 12v38h461v-38q-106 0 -127 -53q-11 -28 -11 -124v-486q0 -78 2 -91q8 -53 46 -72q31 -15 90 -15v-37z" />
  </g>

</svg>
