<?xml version="1.0" standalone="no"?>
<!DOCTYPE svg PUBLIC "-//W3C//DTD SVG 1.1//EN" "http://www.w3.org/Graphics/SVG/1.1/DTD/svg11.dtd" >
<svg xmlns="http://www.w3.org/2000/svg" xmlns:xlink="http://www.w3.org/1999/xlink" version="1.1" viewBox="0 -410 2048 2048">
  <g transform="matrix(1 0 0 -1 0 1638)">
   <path fill="currentColor"
d="M953 475q0 -127 -58 -247q-61 -129 -164 -192.5t-230 -63.5q-207 0 -329 165q-103 139 -103 312q0 125 60 246q64 129 166 188.5t217 59.5q208 0 334 -158q107 -135 107 -310zM760 520q-18 139 -79 235q-77 123 -200 123q-134 0 -193 -142q-34 -81 -33 -203v-13h505z
M767 398q0 20 -2 57h-507q13 -150 77 -267q79 -145 209 -145q223 0 223 355z" />
  </g>

</svg>
