<?xml version="1.0" encoding="UTF-8" standalone="no"?>
<svg
   xmlns:dc="http://purl.org/dc/elements/1.1/"
   xmlns:cc="http://creativecommons.org/ns#"
   xmlns:rdf="http://www.w3.org/1999/02/22-rdf-syntax-ns#"
   xmlns:svg="http://www.w3.org/2000/svg"
   xmlns="http://www.w3.org/2000/svg"
   xmlns:sodipodi="http://sodipodi.sourceforge.net/DTD/sodipodi-0.dtd"
   xmlns:inkscape="http://www.inkscape.org/namespaces/inkscape"
   version="1.1"
   viewBox="0 -410 2048 2048"
   id="svg2"
   inkscape:version="0.48.5 r10040"
   width="100%"
   height="100%"
   sodipodi:docname="e036.svg">
  <metadata
     id="metadata12">
    <rdf:RDF>
      <cc:Work
         rdf:about="">
        <dc:format>image/svg+xml</dc:format>
        <dc:type
           rdf:resource="http://purl.org/dc/dcmitype/StillImage" />
      </cc:Work>
    </rdf:RDF>
  </metadata>
  <defs
     id="defs10" />
  <sodipodi:namedview
     pagecolor="#ffffff"
     bordercolor="#666666"
     borderopacity="1"
     objecttolerance="10"
     gridtolerance="10"
     guidetolerance="10"
     inkscape:pageopacity="0"
     inkscape:pageshadow="2"
     inkscape:window-width="640"
     inkscape:window-height="480"
     id="namedview8"
     showgrid="false"
     inkscape:zoom="0.11523438"
     inkscape:cx="1024"
     inkscape:cy="1024"
     inkscape:window-x="0"
     inkscape:window-y="0"
     inkscape:window-maximized="0"
     inkscape:current-layer="svg2" />
  <g
     transform="matrix(1 0 0 -1 0 1638)"
     id="g4">
    <path
       d="m 380,943 0,-736 c 0,-57.33333 4.16667,-95.5 12.5,-114.5 8.33333,-19 20.66667,-33.166667 37,-42.5 16.33333,-9.333333 46.16667,-14 89.5,-14 L 519,0 74,0 74,36 c 44.66667,0 74.66667,4.333333 90,13 15.33333,8.666667 27.5,23 36.5,43 9,20 13.5,58.33333 13.5,115 l 0,353 c 0,99.33333 -3,163.66667 -9,193 -4.66667,21.33333 -12,36.16667 -22,44.5 -10,8.33333 -23.66667,12.5 -41,12.5 -18.66667,0 -41.33333,-5 -68,-15 l -14,36 276,112 z"
       id="path6"
       inkscape:connector-curvature="0"
       style="fill:currentColor"
       sodipodi:nodetypes="csssccccsssscsscccc" />
  </g>
</svg>
