<?xml version="1.0" encoding="UTF-8" standalone="no"?>
<svg
   xmlns:dc="http://purl.org/dc/elements/1.1/"
   xmlns:cc="http://creativecommons.org/ns#"
   xmlns:rdf="http://www.w3.org/1999/02/22-rdf-syntax-ns#"
   xmlns:svg="http://www.w3.org/2000/svg"
   xmlns="http://www.w3.org/2000/svg"
   xmlns:sodipodi="http://sodipodi.sourceforge.net/DTD/sodipodi-0.dtd"
   xmlns:inkscape="http://www.inkscape.org/namespaces/inkscape"
   version="1.1"
   viewBox="-157 -442 2048 2048"
   id="svg2"
   inkscape:version="0.48.5 r10040"
   width="100%"
   height="100%"
   sodipodi:docname="e037.svg">
  <metadata
     id="metadata12">
    <rdf:RDF>
      <cc:Work
         rdf:about="">
        <dc:format>image/svg+xml</dc:format>
        <dc:type
           rdf:resource="http://purl.org/dc/dcmitype/StillImage" />
      </cc:Work>
    </rdf:RDF>
  </metadata>
  <defs
     id="defs10" />
  <sodipodi:namedview
     pagecolor="#ffffff"
     bordercolor="#666666"
     borderopacity="1"
     objecttolerance="10"
     gridtolerance="10"
     guidetolerance="10"
     inkscape:pageopacity="0"
     inkscape:pageshadow="2"
     inkscape:window-width="640"
     inkscape:window-height="480"
     id="namedview8"
     showgrid="false"
     inkscape:zoom="0.11523438"
     inkscape:cx="1024"
     inkscape:cy="1024"
     inkscape:window-x="0"
     inkscape:window-y="0"
     inkscape:window-maximized="0"
     inkscape:current-layer="svg2" />
  <g
     transform="matrix(1 0 0 -1 0 1638)"
     id="g4">
    <path
       d="m 382,943 0,-922 c 0,-156.66667 -33.33333,-273 -100,-349 -66.66667,-76 -153.33333,-114 -260,-114 -60.666667,0 -105.666667,11 -135,33 -29.33333,22 -44,44.66667 -44,68 0,23.33333 8.16667,43.33333 24.5,60 16.33333,16.66667 35.5,25 57.5,25 17.333333,0 35,-4.33333 53,-13 11.333333,-4.66667 33.166667,-21.5 65.5,-50.5 32.333333,-29 59.5,-43.5 81.5,-43.5 16,0 31.66667,6.16667 47,18.5 15.33333,12.33333 26.66667,33 34,62 7.33333,29 11,91.83333 11,188.5 l 0,652 c 0,100.66667 -3,165.33333 -9,194 -4.66667,22 -12,37.16667 -22,45.5 -10,8.33333 -23.66667,12.5 -41,12.5 -18.66667,0 -41.33333,-5 -68,-15 l -14,36 276,112 z"
       id="path6"
       inkscape:connector-curvature="0"
       style="fill:currentColor"
       sodipodi:nodetypes="cssssssscsssssscsscccc" />
  </g>
</svg>
