<?xml version="1.0" standalone="no"?>
<!DOCTYPE svg PUBLIC "-//W3C//DTD SVG 1.1//EN" "http://www.w3.org/Graphics/SVG/1.1/DTD/svg11.dtd" >
<svg xmlns="http://www.w3.org/2000/svg" xmlns:xlink="http://www.w3.org/1999/xlink" version="1.1" viewBox="0 -410 2048 2048">
  <g transform="matrix(1 0 0 -1 0 1638)">
   <path fill="currentColor"
d="M350 282l396 458q-2 77 -29 107t-93 31v38h426v-38q-67 0 -90 -13.5t-36 -33.5t-13 -130v-486q0 -106 11 -126.5t34.5 -36t93.5 -15.5v-37h-443v37q83 0 111 30.5t28 147.5v431l-396 -459q2 -85 24 -117t95 -33v-37h-423v37q89 0 114 32.5t25 145.5v486q0 107 -11 126.5
t-34 35t-94 15.5v38h443v-38q-67 0 -90 -13.5t-36 -33.5t-13 -130v-419z" />
  </g>

</svg>
