<?xml version="1.0" standalone="no"?>
<!DOCTYPE svg PUBLIC "-//W3C//DTD SVG 1.1//EN" "http://www.w3.org/Graphics/SVG/1.1/DTD/svg11.dtd" >
<svg xmlns="http://www.w3.org/2000/svg" xmlns:xlink="http://www.w3.org/1999/xlink" version="1.1" viewBox="0 -410 2048 2048">
  <g transform="matrix(1 0 0 -1 0 1638)">
   <path fill="currentColor"
d="M1100 0h-476v37q74 0 74 43q0 29 -49 77l-306 300v-283q0 -99 37 -120q30 -17 62 -17h31v-37h-428v37h32q57 0 82 33q17 22 17 104v568q0 69 -9 92q-18 45 -90 45h-32v37h428v-37h-31q-73 0 -91 -48q-8 -21 -8 -89v-268q20 18 93 85q190 174 231 235q18 26 18 46
q0 39 -62 39h-21v37h351v-37q-54 -1 -113 -37q-52 -32 -112 -91l-102 -104l-130 -124l345 -339q141 -139 259 -147v-37z" />
  </g>

</svg>
