<?xml version="1.0" encoding="UTF-8" standalone="no"?>
<svg
   xmlns:dc="http://purl.org/dc/elements/1.1/"
   xmlns:cc="http://creativecommons.org/ns#"
   xmlns:rdf="http://www.w3.org/1999/02/22-rdf-syntax-ns#"
   xmlns:svg="http://www.w3.org/2000/svg"
   xmlns="http://www.w3.org/2000/svg"
   xmlns:sodipodi="http://sodipodi.sourceforge.net/DTD/sodipodi-0.dtd"
   xmlns:inkscape="http://www.inkscape.org/namespaces/inkscape"
   version="1.1"
   viewBox="0 -410 2048 2048"
   id="svg2"
   inkscape:version="0.48.5 r10040"
   width="100%"
   height="100%"
   sodipodi:docname="e038.svg">
  <metadata
     id="metadata12">
    <rdf:RDF>
      <cc:Work
         rdf:about="">
        <dc:format>image/svg+xml</dc:format>
        <dc:type
           rdf:resource="http://purl.org/dc/dcmitype/StillImage" />
      </cc:Work>
    </rdf:RDF>
  </metadata>
  <defs
     id="defs10" />
  <sodipodi:namedview
     pagecolor="#ffffff"
     bordercolor="#666666"
     borderopacity="1"
     objecttolerance="10"
     gridtolerance="10"
     guidetolerance="10"
     inkscape:pageopacity="0"
     inkscape:pageshadow="2"
     inkscape:window-width="1366"
     inkscape:window-height="705"
     id="namedview8"
     showgrid="false"
     inkscape:zoom="0.18946457"
     inkscape:cx="196.78407"
     inkscape:cy="456.97488"
     inkscape:window-x="-8"
     inkscape:window-y="-8"
     inkscape:window-maximized="1"
     inkscape:current-layer="svg2" />
  <path
     style="fill:currentColor"
     d="m 343,1591 306,300 c 32.66667,32 49,57.6667 49,77 0,28.6667 -24.66667,43 -74,43 l 0,37 476,0 0,-37 c -78.6667,-5.3333 -165,-54.3333 -259,-147 L 496,1525 626,1401 728,1297 c 40,-39.3333 77.33333,-69.6667 112,-91 39.33333,-24 77,-36.3333 113,-37 l 0,-37 c -459.98191,0 -277.36344,-39.6631 -286,122 -27.33333,40.6667 -104.33333,119 -231,235 -48.66667,44.6667 -79.66667,73 -93,85 l 0,-469 -45,0 -276,112 14,36 c 26.66667,-10 49.33333,-15 68,-15 17.33333,0 31,4.1667 41,12.5 10,8.3333 17.33333,23.1667 22,44.5 6,29.3333 9,93.6667 9,193 l 0,386 c 0,54.6667 -5.66667,89.3333 -17,104 -16.66667,22 -44,33 -82,33 l -32,0 0,37 428,0 0,-37 -31,0 c -21.33333,0 -42,-5.6667 -62,-17 -24.66667,-14 -37,-54 -37,-120 z"
     transform="translate(0,-410)"
     id="path6"
     inkscape:connector-curvature="0"
     sodipodi:nodetypes="ccsccccccccccccccccccssccccsccccsccc" />
</svg>
