<?xml version="1.0" encoding="UTF-8" standalone="no"?>
<svg
   xmlns:dc="http://purl.org/dc/elements/1.1/"
   xmlns:cc="http://creativecommons.org/ns#"
   xmlns:rdf="http://www.w3.org/1999/02/22-rdf-syntax-ns#"
   xmlns:svg="http://www.w3.org/2000/svg"
   xmlns="http://www.w3.org/2000/svg"
   xmlns:sodipodi="http://sodipodi.sourceforge.net/DTD/sodipodi-0.dtd"
   xmlns:inkscape="http://www.inkscape.org/namespaces/inkscape"
   version="1.1"
   viewBox="-40 -410 2048 2048"
   id="svg2"
   inkscape:version="0.48.3.1 r9886"
   width="100%"
   height="100%"
   sodipodi:docname="uniE031_TaijituSerif.svg">
  <metadata
     id="metadata12">
    <rdf:RDF>
      <cc:Work
         rdf:about="">
        <dc:format>image/svg+xml</dc:format>
        <dc:type
           rdf:resource="http://purl.org/dc/dcmitype/StillImage" />
      </cc:Work>
    </rdf:RDF>
  </metadata>
  <defs
     id="defs10" />
  <sodipodi:namedview
     pagecolor="#ffffff"
     bordercolor="#666666"
     borderopacity="1"
     objecttolerance="10"
     gridtolerance="10"
     guidetolerance="10"
     inkscape:pageopacity="0"
     inkscape:pageshadow="2"
     inkscape:window-width="1920"
     inkscape:window-height="1018"
     id="namedview8"
     showgrid="false"
     showguides="true"
     inkscape:guide-bbox="true"
     inkscape:zoom="0.2"
     inkscape:cx="529.0564"
     inkscape:cy="558.2896"
     inkscape:window-x="-8"
     inkscape:window-y="-8"
     inkscape:window-maximized="1"
     inkscape:current-layer="svg2">
    <inkscape:grid
       type="xygrid"
       id="grid2996" />
    <sodipodi:guide
       orientation="0,1"
       position="1045,1356"
       id="guide2998" />
  </sodipodi:namedview>
  <path
     style="fill:currentColor"
     d="m 64.0625,692 0,37 c 33.33431,5.3333 55.66762,11 67,17 37.33423,19.3333 68.3342,58.3332 93,117 L 394,1264.75 135.46875,1890 c -20,47.3333 -41,80.6667 -63,100 -13.333333,11.3333 -37.333333,18.3333 -72,21 l 0,37 299,0 0,-37 c -52,0 -84.33333,-8.6667 -97,-26 -5.33333,-6 -8,-13.6667 -8,-23 0,-19.3333 7.66667,-47.6667 23,-85 l 213.71875,-524.3438 110.84375,262 L 644.46875,1858 c 14,33.3333 21,61 21,83 0,46.6667 -26.66667,70 -80,70 l -28,0 0,37 431,0 0,-37 c -33.33333,-5.3333 -55.66667,-11 -67,-17 -37.33333,-19.3333 -68.33333,-58.3333 -93,-117 C 688.11577,1545.4249 547.75839,1213.8524 408.0625,882 c -13.9993,-33.3335 -20.9993,-61.0001 -21,-83 7e-4,-46.6667 26.6673,-70 80,-70 l 28,0 0,-37 z"
     transform="translate(-40,-410)"
     id="path6"
     inkscape:connector-curvature="0"
     sodipodi:nodetypes="ccccccccccccsccccssccccccccsccc" />
</svg>
