<?xml version="1.0" standalone="no"?>
<!DOCTYPE svg PUBLIC "-//W3C//DTD SVG 1.1//EN" "http://www.w3.org/Graphics/SVG/1.1/DTD/svg11.dtd" >
<svg xmlns="http://www.w3.org/2000/svg" xmlns:xlink="http://www.w3.org/1999/xlink" version="1.1" viewBox="0 -410 2048 2048">
  <g transform="matrix(1 0 0 -1 0 1638)">
   <path fill="currentColor"
d="M1005 0h-431v37h28q80 0 80 70q0 33 -21 83l-213 506l-214 -525q-23 -56 -23 -85q0 -14 8 -23q19 -26 97 -26v-37h-299v37q52 4 72 21q33 29 63 100l325 786h41l327 -773q37 -88 93 -117q17 -9 67 -17v-37z" />
  </g>

</svg>
