<?xml version="1.0" standalone="no"?>
<!DOCTYPE svg PUBLIC "-//W3C//DTD SVG 1.1//EN" "http://www.w3.org/Graphics/SVG/1.1/DTD/svg11.dtd" >
<svg xmlns="http://www.w3.org/2000/svg" xmlns:xlink="http://www.w3.org/1999/xlink" version="1.1" viewBox="0 -410 2048 2048">
  <g transform="matrix(1 0 0 -1 0 1638)">
   <path fill="currentColor"
d="M17 916h431v-37h-28q-39 0 -59.5 -19t-20.5 -51q0 -35 21 -83l213 -506l214 525q23 56 23 85q0 14 -8 23q-11 15 -28 20.5t-69 5.5v37h299v-37q-52 -4 -72 -21q-35 -30 -63 -100l-325 -786h-41l-327 773q-22 54 -42 77.5t-51 39.5q-17 9 -67 17v37z" />
  </g>

</svg>
