<?xml version="1.0" encoding="UTF-8" standalone="no"?>
<svg
   xmlns:dc="http://purl.org/dc/elements/1.1/"
   xmlns:cc="http://creativecommons.org/ns#"
   xmlns:rdf="http://www.w3.org/1999/02/22-rdf-syntax-ns#"
   xmlns:svg="http://www.w3.org/2000/svg"
   xmlns="http://www.w3.org/2000/svg"
   xmlns:sodipodi="http://sodipodi.sourceforge.net/DTD/sodipodi-0.dtd"
   xmlns:inkscape="http://www.inkscape.org/namespaces/inkscape"
   version="1.1"
   viewBox="0 -410 2048 2048"
   id="svg2"
   inkscape:version="0.48.3.1 r9886"
   width="100%"
   height="100%"
   sodipodi:docname="uniE03B_TaijituSerif.svg">
  <metadata
     id="metadata12">
    <rdf:RDF>
      <cc:Work
         rdf:about="">
        <dc:format>image/svg+xml</dc:format>
        <dc:type
           rdf:resource="http://purl.org/dc/dcmitype/StillImage" />
      </cc:Work>
    </rdf:RDF>
  </metadata>
  <defs
     id="defs10" />
  <sodipodi:namedview
     pagecolor="#ffffff"
     bordercolor="#666666"
     borderopacity="1"
     objecttolerance="10"
     gridtolerance="10"
     guidetolerance="10"
     inkscape:pageopacity="0"
     inkscape:pageshadow="2"
     inkscape:window-width="1920"
     inkscape:window-height="1018"
     id="namedview8"
     showgrid="false"
     showguides="true"
     inkscape:guide-bbox="true"
     inkscape:zoom="0.36"
     inkscape:cx="1057.6481"
     inkscape:cy="205.45766"
     inkscape:window-x="-8"
     inkscape:window-y="-8"
     inkscape:window-maximized="1"
     inkscape:current-layer="svg2" />
  <path
     style="fill:currentColor"
     d="M 13 1132 L 13 1169 C 53 1177.6667 82.333333 1190.5 101 1207.5 C 119.66667 1224.5 138.66667 1257.3333 158 1306 L 452 2076 L 489 2076 L 756 1491 L 925.125 1923.0312 L 925.125 2242 C 925.125 2310 923.79167 2350 921.125 2362 C 908.45833 2417.3333 862.79167 2445 784.125 2445 L 752.125 2445 L 752.125 2486 L 1267.125 2486 L 1267.125 2445 L 1226.125 2445 C 1193.4583 2445 1165.125 2437.6667 1141.125 2423 C 1123.7917 2412.3333 1112.4583 2399.6667 1107.125 2385 C 1099.7917 2365.6667 1096.125 2318 1096.125 2242 L 1096.125 1895.1875 L 1332 1287 C 1359.3333 1217 1402 1177.6667 1460 1169 L 1460 1132 L 1171 1132 L 1171 1169 C 1209 1170.3333 1234.5 1176 1247.5 1186 C 1260.5 1196 1267 1207.3333 1267 1220 C 1267 1241.3333 1260.3333 1270 1247 1306 L 1054 1813 L 846 1287 C 840.66667 1273 838 1259.3333 838 1246 C 838 1222.6667 844.66667 1205.6667 858 1195 C 878 1179.6667 912 1171 960 1169 L 960 1132 L 524 1132 L 524 1169 C 564 1171 591.33333 1176.6667 606 1186 C 632 1201.3333 653 1229 669 1269 L 721 1404 L 524 1833 L 328 1306 C 316.66667 1276.6667 311 1251.6667 311 1231 C 311 1212.3333 316.5 1198 327.5 1188 C 338.5 1178 361.66667 1171.6667 397 1169 L 397 1132 L 13 1132 z "
     transform="translate(0,-410)"
     id="path6" />
</svg>
