<?xml version="1.0" encoding="UTF-8" standalone="no"?>
<svg
   xmlns:dc="http://purl.org/dc/elements/1.1/"
   xmlns:cc="http://creativecommons.org/ns#"
   xmlns:rdf="http://www.w3.org/1999/02/22-rdf-syntax-ns#"
   xmlns:svg="http://www.w3.org/2000/svg"
   xmlns="http://www.w3.org/2000/svg"
   xmlns:sodipodi="http://sodipodi.sourceforge.net/DTD/sodipodi-0.dtd"
   xmlns:inkscape="http://www.inkscape.org/namespaces/inkscape"
   version="1.1"
   viewBox="0 -410 2048 2048"
   id="svg2"
   inkscape:version="0.48.3.1 r9886"
   width="100%"
   height="100%"
   sodipodi:docname="uniE035_TaijituSerif.svg">
  <metadata
     id="metadata12">
    <rdf:RDF>
      <cc:Work
         rdf:about="">
        <dc:format>image/svg+xml</dc:format>
        <dc:type
           rdf:resource="http://purl.org/dc/dcmitype/StillImage" />
      </cc:Work>
    </rdf:RDF>
  </metadata>
  <defs
     id="defs10" />
  <sodipodi:namedview
     pagecolor="#ffffff"
     bordercolor="#666666"
     borderopacity="1"
     objecttolerance="10"
     gridtolerance="10"
     guidetolerance="10"
     inkscape:pageopacity="0"
     inkscape:pageshadow="2"
     inkscape:window-width="1920"
     inkscape:window-height="1018"
     id="namedview8"
     showgrid="true"
     showguides="true"
     inkscape:guide-bbox="true"
     inkscape:zoom="0.13995495"
     inkscape:cx="1017.0838"
     inkscape:cy="604.04744"
     inkscape:window-x="-8"
     inkscape:window-y="-8"
     inkscape:window-maximized="1"
     inkscape:current-layer="svg2">
    <inkscape:grid
       type="xygrid"
       id="grid3017" />
  </sodipodi:namedview>
  <path
     style="fill:currentColor"
     d="M 448 1131 L 455.375 1132 L 282 1132 L 50 1132 L 12 1380 L 57 1380 C 70.333333 1324.6667 86.5 1283.8333 105.5 1257.5 C 124.5 1231.1667 144.33333 1214.5 165 1207.5 C 185.66667 1200.5 224.66667 1197 282 1197 L 282 1833 C 281.99982 1908.3335 273.66649 1956.8334 257 1978.5 C 240.33319 2000.1667 202.33323 2011 143 2011 L 143 2048 L 586 2048 L 586 2011 C 539.3329 2011 508.1662 2005.8334 492.5 1995.5 C 476.8329 1985.1667 465.333 1973.1667 458 1959.5 C 450.6663 1945.8334 446.99965 1903.6668 447 1833 L 447 1197 L 843 1197 L 843 1833 C 842.9992 1911.0001 833.6659 1960.1668 815 1980.5 C 796.3326 2000.8334 759.3327 2011 704 2011 L 704 2048 L 1147 2048 L 1147 2011 C 1100.3323 2011 1069.1657 2005.8334 1053.5 1995.5 C 1037.8324 1985.1667 1026.3324 1973.1667 1019 1959.5 C 1011.6657 1945.8334 1007.9991 1903.6668 1008 1833 L 1008 1196 C 1066 1196 1107 1200.3333 1131 1209 C 1155 1217.6667 1176.3333 1235.6667 1195 1263 C 1213.6667 1290.3333 1227 1329 1235 1379 L 1280 1379 L 1240 1131 L 448 1131 z "
     transform="translate(0,-410)"
     id="path6" />
</svg>
