<?xml version="1.0" standalone="no"?>
<!DOCTYPE svg PUBLIC "-//W3C//DTD SVG 1.1//EN" "http://www.w3.org/Graphics/SVG/1.1/DTD/svg11.dtd" >
<svg xmlns="http://www.w3.org/2000/svg" xmlns:xlink="http://www.w3.org/1999/xlink" version="1.1" viewBox="0 -438 2048 2048">
  <g transform="matrix(1 0 0 -1 0 1638)">
   <path fill="currentColor"
d="M816 723q0 -85 -93 -85q-59 0 -89 38q-14 17 -22 82q-8 59 -41.5 88.5t-96.5 29.5q-100 0 -161 -74q-81 -98 -81 -259q0 -154 70 -274q84 -141 228 -141q54 0 94 7v-358q0 -78 2 -91q8 -53 46 -72q31 -15 90 -15v-37h-461v37q68 3 80 5q43 9 61 44q16 31 16 129v200
q-160 0 -272 126q-116 131 -116 354q0 199 117 339q124 147 320 147q106 0 200 -55q109 -65 109 -165z" />
  </g>

</svg>
