<?xml version="1.0" standalone="no"?>
<!DOCTYPE svg PUBLIC "-//W3C//DTD SVG 1.1//EN" "http://www.w3.org/Graphics/SVG/1.1/DTD/svg11.dtd" >
<svg xmlns="http://www.w3.org/2000/svg" xmlns:xlink="http://www.w3.org/1999/xlink" version="1.1" viewBox="0 -410 2048 2048">
  <g transform="matrix(1 0 0 -1 0 1638)">
   <path fill="currentColor"
d="M1055 879h-34q-54 0 -83 -45q-15 -23 -15 -97v-359q0 -201 -77 -295q-83 -103 -275 -103q-220 0 -313 112q-80 98 -80 305v345q0 71 -15 98q-21 39 -84 39h-34v37h430v-37h-36q-57 0 -81 -35q-16 -23 -16 -102v-374q0 -151 44 -225q56 -93 193 -93q166 0 227 99
q45 74 45 247v346q0 86 -19 108q-26 29 -79 29h-34v37h336v-37z" />
  </g>

</svg>
