<?xml version="1.0" encoding="UTF-8" standalone="no"?>
<svg
   xmlns:dc="http://purl.org/dc/elements/1.1/"
   xmlns:cc="http://creativecommons.org/ns#"
   xmlns:rdf="http://www.w3.org/1999/02/22-rdf-syntax-ns#"
   xmlns:svg="http://www.w3.org/2000/svg"
   xmlns="http://www.w3.org/2000/svg"
   xmlns:sodipodi="http://sodipodi.sourceforge.net/DTD/sodipodi-0.dtd"
   xmlns:inkscape="http://www.inkscape.org/namespaces/inkscape"
   version="1.1"
   viewBox="0 -410 2048 2048"
   id="svg4317"
   inkscape:version="0.48.5 r10040"
   width="100%"
   height="100%"
   sodipodi:docname="e047_TaijituSerif.svg">
  <metadata
     id="metadata4327">
    <rdf:RDF>
      <cc:Work
         rdf:about="">
        <dc:format>image/svg+xml</dc:format>
        <dc:type
           rdf:resource="http://purl.org/dc/dcmitype/StillImage" />
      </cc:Work>
    </rdf:RDF>
  </metadata>
  <defs
     id="defs4325" />
  <sodipodi:namedview
     pagecolor="#ffffff"
     bordercolor="#666666"
     borderopacity="1"
     objecttolerance="10"
     gridtolerance="10"
     guidetolerance="10"
     inkscape:pageopacity="0"
     inkscape:pageshadow="2"
     inkscape:window-width="1366"
     inkscape:window-height="705"
     id="namedview4323"
     showgrid="false"
     inkscape:zoom="0.3"
     inkscape:cx="1024"
     inkscape:cy="538.39194"
     inkscape:window-x="-8"
     inkscape:window-y="-8"
     inkscape:window-maximized="1"
     inkscape:current-layer="svg4317" />
  <path
     style="fill:currentColor"
     d="M 458 658 L 353 1003 L 387 1003 L 682 658 L 458 658 z M 443 1105 C 337 1105 254.66667 1129 196 1177 C 137.33333 1225 108 1277.6667 108 1335 C 108 1365 115.83333 1388.6667 131.5 1406 C 147.16667 1423.3333 167.33333 1432 192 1432 C 217.33333 1432 237.83333 1423.6667 253.5 1407 C 269.16667 1390.3333 277 1366.6667 277 1336 L 275 1278 C 275 1248.6667 287.66667 1222.6667 313 1200 C 337.66667 1177.3333 371 1166 413 1166 C 468.3333 1166 510.5 1183 539.5 1217 C 568.49999 1251 583 1313.6666 583 1405 L 583 1441 C 425.66668 1498.3333 313.16667 1547 245.5 1587 C 177.83333 1627 130.33333 1669.6667 103 1715 C 83 1747.6667 73 1786.3333 73 1831 C 73 1901.6667 93.5 1958.6667 134.5 2002 C 175.5 2045.3333 227.66667 2067 291 2067 C 331.66667 2067 370 2058.6667 406 2042 C 430 2030.6667 489.00001 1988.6667 583 1916 L 583 2076 L 628 2076 L 902 1963 L 888 1928 C 861.999 1939.3334 838.6657 1945.0001 818 1945 C 803.3324 1945.0001 790.4991 1940.3334 779.5 1931 C 768.4991 1921.6668 760.4991 1905.1668 755.5 1881.5 C 743.276 1723.64 748 1594.1676 748 1419 C 748 1330.3332 742 1271.6667 730 1243 C 711.3333 1199 682.3333 1166.6667 643 1146 C 590.99997 1118.6667 524.3333 1105 443 1105 z M 583 1502 L 583 1851 C 500.33331 1917.6667 433.66667 1951 383 1951 C 345.66667 1951 312.66667 1935.1667 284 1903.5 C 255.33333 1871.8333 241 1832 241 1784 C 241 1746 252.33333 1711 275 1679 C 297.66667 1647 335.33333 1616.3333 388 1587 C 417.33333 1570.3333 482.33331 1542 583 1502 z "
     transform="translate(0,-410)"
     id="path4321" />
</svg>
