<?xml version="1.0" encoding="UTF-8" standalone="no"?>
<svg
   xmlns:dc="http://purl.org/dc/elements/1.1/"
   xmlns:cc="http://creativecommons.org/ns#"
   xmlns:rdf="http://www.w3.org/1999/02/22-rdf-syntax-ns#"
   xmlns:svg="http://www.w3.org/2000/svg"
   xmlns="http://www.w3.org/2000/svg"
   xmlns:sodipodi="http://sodipodi.sourceforge.net/DTD/sodipodi-0.dtd"
   xmlns:inkscape="http://www.inkscape.org/namespaces/inkscape"
   version="1.1"
   viewBox="0 -410 2048 2048"
   id="svg4956"
   inkscape:version="0.48.5 r10040"
   width="100%"
   height="100%"
   sodipodi:docname="e048_TaijituSerif.svg">
  <metadata
     id="metadata4966">
    <rdf:RDF>
      <cc:Work
         rdf:about="">
        <dc:format>image/svg+xml</dc:format>
        <dc:type
           rdf:resource="http://purl.org/dc/dcmitype/StillImage" />
      </cc:Work>
    </rdf:RDF>
  </metadata>
  <defs
     id="defs4964" />
  <sodipodi:namedview
     pagecolor="#ffffff"
     bordercolor="#666666"
     borderopacity="1"
     objecttolerance="10"
     gridtolerance="10"
     guidetolerance="10"
     inkscape:pageopacity="0"
     inkscape:pageshadow="2"
     inkscape:window-width="640"
     inkscape:window-height="480"
     id="namedview4962"
     showgrid="false"
     inkscape:zoom="0.11523438"
     inkscape:cx="1024"
     inkscape:cy="1024"
     inkscape:window-x="0"
     inkscape:window-y="0"
     inkscape:window-maximized="0"
     inkscape:current-layer="svg4956" />
  <path
     style="fill:#000000"
     d="M 683 658 L 578 1003 L 612 1003 L 907 658 L 683 658 z M 440 1104 C 370.00004 1104 308.83339 1116 256.5 1140 C 204.1667 1164 165.8334 1193.3333 141.5 1228 C 117.1667 1262.6667 105 1297.3333 105 1332 C 105 1358.6667 115 1382.6667 135 1404 C 149 1419.3333 169 1427 195 1427 C 213 1427 228 1422.6667 240 1414 C 252 1405.3332 260.8334 1392.6667 266.5 1376 C 272.1667 1359.3333 275 1323 275 1267 C 275 1240.3333 287.66671 1216 313 1194 C 337.6667 1172.6667 372 1162 416 1162 C 460.66666 1162 496.3334 1176.8333 523 1206.5 C 549.6667 1236.1667 563 1287 563 1359 L 563 1451 C 483 1479 390.99999 1519.6667 287 1573 C 202.3334 1616.3333 145.5 1658.3333 116.5 1699 C 87.5 1739.6667 73 1789 73 1847 C 73 1911 94.5 1965.1667 137.5 2009.5 C 180.5 2053.8333 233.33341 2076 296 2076 C 333.3334 2076 369.6667 2070.6667 405 2060 C 440.33336 2049.3333 473.6667 2035 505 2017 C 518.3334 2009.6667 544.3334 1990.3333 583 1959 C 611.6667 1936.3333 630.5429 1922.6627 638 1916 L 646.5625 1908.3438 C 655.1574 1921.1117 664.42295 1933.3276 674.34375 1945 C 748.57175 2032.3333 835.58245 2076 935.40625 2076 C 1019.2327 2076 1095.7037 2043.5 1164.8125 1978.5 C 1233.921 1913.5 1280.3235 1820.6667 1304 1700 L 1276.1562 1686 C 1242.882 1766.6663 1208.6634 1822.333 1173.4688 1853 C 1123.5566 1897.6667 1067.2408 1920 1004.5312 1920 C 916.8658 1920 847.262 1878.1667 795.75 1794.5 C 758.5454 1734.0713 734.79635 1666.9047 724.46875 1593 L 1035.25 1593 L 1035.25 1528 L 718.875 1528 C 718.6151 1520.329 718.5 1512.6622 718.5 1505 C 718.5 1397.6662 744.4184 1311.333 796.25 1246 C 835.2837 1196.6667 886.79165 1172 950.78125 1172 C 990.45515 1172 1021.4789 1182 1043.875 1202 C 1066.2711 1222.667 1079.2303 1252.667 1082.75 1292 C 1086.2697 1331.3333 1093.4657 1358 1104.3438 1372 C 1123.5409 1397.3333 1152.0276 1410 1189.7812 1410 C 1217.937 1410.0003 1239.8541 1402.167 1255.5312 1386.5 C 1271.2088 1370.833 1279.0312 1350.333 1279.0312 1325 C 1279.0312 1273.667 1251.2024 1224.167 1195.5312 1176.5 C 1139.8603 1128.8333 1068.8236 1105 982.4375 1105 C 877.2657 1105 785.85215 1142.5253 708.15625 1217.5625 C 704.34665 1184.734 665.2946 1161.0787 627 1139.5 C 585 1115.8333 522.6667 1104 440 1104 z M 563 1516 L 563 1598 C 563 1651 567.3334 1698.1667 576 1746.5 C 584.6667 1794.8333 596 1834 610 1864 C 555.3334 1906.6667 513.5 1934.8333 484.5 1948.5 C 455.5 1962.1667 428 1969 402 1969 C 358 1969 320.16669 1952.3333 288.5 1919 C 256.8334 1885.6667 241 1842.6667 241 1790 C 241 1730.6667 265.66671 1682 315 1644 C 390.3334 1586.6667 473 1544 563 1516 z "
     transform="translate(0,-410)"
     id="path4377" />
</svg>
