<?xml version="1.0" standalone="no"?>
<!DOCTYPE svg PUBLIC "-//W3C//DTD SVG 1.1//EN" "http://www.w3.org/Graphics/SVG/1.1/DTD/svg11.dtd" >
<svg xmlns="http://www.w3.org/2000/svg" xmlns:xlink="http://www.w3.org/1999/xlink" version="1.1" viewBox="0 -410 2048 2048">
  <g transform="matrix(1 0 0 -1 0 1638)">
   <path fill="currentColor"
d="M1392 1387l-988 -1443h-89l988 1443h89zM364 1387q135 0 209.5 -112t74.5 -257q0 -174 -84 -269t-202 -95q-79 0 -145 43.5t-105.5 129.5t-39.5 191t40 193.5t109.5 132t142.5 43.5zM361 1331q-51 0 -90.5 -60t-39.5 -252q0 -139 22 -212q17 -55 53 -85q21 -18 52 -18
q48 0 82 52q50 77 50 257q0 190 -49 267q-32 51 -80 51zM1346 673q71 0 141.5 -45t109 -131t38.5 -189q0 -177 -85 -270.5t-201 -93.5q-73 0 -141.5 45t-108 128.5t-39.5 190.5q0 105 39.5 192t108 130t138.5 43zM1347 620q-48 0 -83 -54q-45 -70 -45 -265q0 -179 46 -250
q34 -51 82 -51q46 0 82 55q48 73 48 251q0 188 -48 263q-33 51 -82 51z" />
  </g>

</svg>
