<?xml version="1.0" standalone="no"?>
<!DOCTYPE svg PUBLIC "-//W3C//DTD SVG 1.1//EN" "http://www.w3.org/Graphics/SVG/1.1/DTD/svg11.dtd" >
<svg xmlns="http://www.w3.org/2000/svg" xmlns:xlink="http://www.w3.org/1999/xlink" version="1.1" viewBox="0 -410 2048 2048">
  <g transform="matrix(1 0 0 -1 0 1638)">
   <path fill="currentColor"
d="M13 916h384v-37q-53 -4 -69.5 -19t-16.5 -43q0 -31 17 -75l196 -527l197 429l-52 135q-24 60 -63 83q-22 14 -82 17v37h436v-37q-72 -3 -102 -26q-20 -16 -20 -51q0 -20 8 -41l208 -526l193 507q20 54 20 86q0 19 -19.5 34t-76.5 17v37h289v-37q-87 -13 -128 -118
l-306 -789h-41l-229 585l-267 -585h-37l-294 770q-29 73 -57 98.5t-88 38.5v37z" />
  </g>

</svg>
