<?xml version="1.0" standalone="no"?>
<!DOCTYPE svg PUBLIC "-//W3C//DTD SVG 1.1//EN" "http://www.w3.org/Graphics/SVG/1.1/DTD/svg11.dtd" >
<svg xmlns="http://www.w3.org/2000/svg" xmlns:xlink="http://www.w3.org/1999/xlink" version="1.1" viewBox="0 -410 2048 2048">
  <g transform="matrix(1 0 0 -1 0 1638)">
   <path fill="currentColor"
d="M842 348q-37 -181 -145 -278.5t-239 -97.5q-156 0 -272 131t-116 354q0 216 128.5 351t308.5 135q135 0 222 -71.5t87 -148.5q0 -38 -24.5 -61.5t-68.5 -23.5q-59 0 -89 38q-17 21 -22.5 80t-40.5 90q-35 30 -97 30q-100 0 -161 -74q-81 -98 -81 -259q0 -164 80.5 -289.5
t217.5 -125.5q98 0 176 67q55 46 107 167z" />
  </g>

</svg>
