<?xml version="1.0" standalone="no"?>
<!DOCTYPE svg PUBLIC "-//W3C//DTD SVG 1.1//EN" "http://www.w3.org/Graphics/SVG/1.1/DTD/svg11.dtd" >
<svg xmlns="http://www.w3.org/2000/svg" xmlns:xlink="http://www.w3.org/1999/xlink" version="1.1" viewBox="0 -410 2048 2048">
  <g transform="matrix(1 0 0 -1 0 1638)">
   <path fill="currentColor"
d="M902 -15q102 -176 220.5 -259t269.5 -95v-32q-138 5 -295 55.5t-297.5 140t-242.5 190.5q-144 58 -228 123q-122 97 -189.5 238.5t-67.5 334.5q0 304 197 505t477 201q266 0 460.5 -201.5t194.5 -508.5q0 -249 -138.5 -437t-360.5 -255zM734 1310q-182 0 -293 -130
q-140 -163 -140 -499q0 -329 142 -507q110 -137 291 -137q188 0 303 137q135 162 135 478q0 243 -74 409q-57 128 -151.5 188.5t-212.5 60.5z" />
  </g>

</svg>
