<?xml version="1.0" encoding="UTF-8" standalone="no"?>
<svg
   xmlns:dc="http://purl.org/dc/elements/1.1/"
   xmlns:cc="http://creativecommons.org/ns#"
   xmlns:rdf="http://www.w3.org/1999/02/22-rdf-syntax-ns#"
   xmlns:svg="http://www.w3.org/2000/svg"
   xmlns="http://www.w3.org/2000/svg"
   xmlns:sodipodi="http://sodipodi.sourceforge.net/DTD/sodipodi-0.dtd"
   xmlns:inkscape="http://www.inkscape.org/namespaces/inkscape"
   version="1.1"
   viewBox="0 -410 2048 2048"
   id="svg2"
   inkscape:version="0.48.3.1 r9886"
   width="100%"
   height="100%"
   sodipodi:docname="uniE02E_TaijituSerif.svg">
  <metadata
     id="metadata12">
    <rdf:RDF>
      <cc:Work
         rdf:about="">
        <dc:format>image/svg+xml</dc:format>
        <dc:type
           rdf:resource="http://purl.org/dc/dcmitype/StillImage" />
      </cc:Work>
    </rdf:RDF>
  </metadata>
  <defs
     id="defs10" />
  <sodipodi:namedview
     pagecolor="#ffffff"
     bordercolor="#666666"
     borderopacity="1"
     objecttolerance="10"
     gridtolerance="10"
     guidetolerance="10"
     inkscape:pageopacity="0"
     inkscape:pageshadow="2"
     inkscape:window-width="1920"
     inkscape:window-height="1018"
     id="namedview8"
     showgrid="false"
     inkscape:zoom="0.2799099"
     inkscape:cx="495.08455"
     inkscape:cy="838.77833"
     inkscape:window-x="-8"
     inkscape:window-y="-8"
     inkscape:window-maximized="1"
     inkscape:current-layer="svg2" />
  <path
     style="fill:currentColor"
     d="m 612,1270 c 24,52 54.66667,78 92,78 22.66667,0 42.66667,-8.5 60,-25.5 17.33333,-17 26,-36.8333 26,-59.5 0,-56.6667 -39.66667,-99.3333 -119,-128 -56.66667,-20 -119.33333,-30 -188,-30 -21.30578,0 -41.97926,-1.0677 -63.01563,-0.5 -79.83545,2.1545 -148.65127,17.5009 -205.98437,51.5 -69.33347,40.6675 -104.0001,98.0008 -104,172 -1e-4,103.334 78.3332,178.3339 235,225 -182.6668,38.0005 -274.00007,123.667 -274,257 -7e-5,86.6668 37.33323,154.3334 112,203 63.9998,42 141.333,63 232,63 129.9995,0 254.9993,-57.6666 375,-173 l -26,-26 c -109.334,84.6668 -213.0005,127 -311,127 -58.0004,0 -104.5003,-19.4999 -139.5,-58.5 -35.0003,-38.9999 -52.5003,-87.8331 -52.5,-146.5 -3e-4,-132.6663 85.6663,-202.9995 257,-211 l 0,-58 c -64.6671,5e-4 -118.3337,-17.3328 -161,-52 -46.0003,-37.3327 -69.0003,-87.666 -69,-151 -3e-4,-47.3326 16.4997,-86.3325 49.5,-117 32.9996,-30.6658 73.15085,-46.653 122.17968,-47.4843 C 528.65868,1161.346 578.66667,1198 612,1270 z"
     transform="translate(0,-410)"
     id="path6"
     inkscape:connector-curvature="0"
     sodipodi:nodetypes="cssscsscscscsccssscccccsc" />
</svg>
