<?xml version="1.0" standalone="no"?>
<!DOCTYPE svg PUBLIC "-//W3C//DTD SVG 1.1//EN" "http://www.w3.org/Graphics/SVG/1.1/DTD/svg11.dtd" >
<svg xmlns="http://www.w3.org/2000/svg" xmlns:xlink="http://www.w3.org/1999/xlink" version="1.1" viewBox="0 -410 2048 2048">
  <g transform="matrix(1 0 0 -1 0 1638)">
   <path fill="currentColor"
d="M26 1356h550v-37q-145 -6 -145 -78q0 -51 107 -238l296 -520l216 520q68 164 68 220q0 78 -126 96v37h425v-37q-150 -18 -228 -204l-259 -616q-101 -237 -164 -337t-137.5 -146.5t-154.5 -46.5q-69 0 -116.5 29.5t-47.5 80.5q0 37 25 61.5t68 24.5q42 0 100 -34
q39 -21 59 -21q79 0 177 164l-492 865q-52 91 -98.5 129t-122.5 51v37z" />
  </g>

</svg>
