<?xml version="1.0" standalone="no"?>
<!DOCTYPE svg PUBLIC "-//W3C//DTD SVG 1.1//EN" "http://www.w3.org/Graphics/SVG/1.1/DTD/svg11.dtd" >
<svg xmlns="http://www.w3.org/2000/svg" xmlns:xlink="http://www.w3.org/1999/xlink" version="1.1" viewBox="0 -410 2048 2048">
  <g transform="matrix(1 0 0 -1 0 1638)">
   <path fill="currentColor"
d="M844 191q13 -154 192 -154v-37h-576v37q179 0 192 154q-264 0 -422.5 142t-158.5 345q0 217 161 346.5t420 140.5q-12 154 -192 154v37h576v-37q-179 0 -192 -154q286 -9 433.5 -150.5t147.5 -336.5q0 -203 -158 -345t-423 -142zM652 1110q-171 -10 -268 -106.5
t-97 -342.5q0 -394 365 -415v864zM844 1110v-864q165 7 265.5 102t100.5 346q0 395 -366 416z" />
  </g>

</svg>
