<?xml version="1.0" encoding="UTF-8" standalone="no"?>
<svg
   xmlns:dc="http://purl.org/dc/elements/1.1/"
   xmlns:cc="http://creativecommons.org/ns#"
   xmlns:rdf="http://www.w3.org/1999/02/22-rdf-syntax-ns#"
   xmlns:svg="http://www.w3.org/2000/svg"
   xmlns="http://www.w3.org/2000/svg"
   xmlns:sodipodi="http://sodipodi.sourceforge.net/DTD/sodipodi-0.dtd"
   xmlns:inkscape="http://www.inkscape.org/namespaces/inkscape"
   version="1.1"
   viewBox="0 -410 2048 2048"
   id="svg2"
   inkscape:version="0.48.3.1 r9886"
   width="100%"
   height="100%"
   sodipodi:docname="uniE020_TaijituSerif.svg">
  <metadata
     id="metadata12">
    <rdf:RDF>
      <cc:Work
         rdf:about="">
        <dc:format>image/svg+xml</dc:format>
        <dc:type
           rdf:resource="http://purl.org/dc/dcmitype/StillImage" />
      </cc:Work>
    </rdf:RDF>
  </metadata>
  <defs
     id="defs10" />
  <sodipodi:namedview
     pagecolor="#ffffff"
     bordercolor="#666666"
     borderopacity="1"
     objecttolerance="10"
     gridtolerance="10"
     guidetolerance="10"
     inkscape:pageopacity="0"
     inkscape:pageshadow="2"
     inkscape:window-width="1920"
     inkscape:window-height="1018"
     id="namedview8"
     showgrid="false"
     inkscape:zoom="0.37"
     inkscape:cx="914.24126"
     inkscape:cy="524.69068"
     inkscape:window-x="-8"
     inkscape:window-y="-8"
     inkscape:window-maximized="1"
     inkscape:current-layer="svg2" />
  <path
     style="fill:#000000;fill-opacity:1"
     d="M 490 1105 C 372.66667 1105 272.83333 1150.1667 190.5 1240.5 C 108.16667 1330.8333 67 1452.3333 67 1605 C 67 1747.6667 107.16667 1861.8333 187.5 1947.5 C 267.83333 2033.1667 366.66667 2076 484 2076 C 548.66667 2076 607.5 2062.5 660.5 2035.5 C 712.09442 2009.2161 758.14915 1970.4578 798.6875 1919.2188 C 804.66831 1928.0856 810.97394 1936.6886 817.65625 1945 C 887.87202 2032.3333 970.19687 2076 1064.625 2076 C 1143.9204 2076 1216.2517 2043.5 1281.625 1978.5 C 1346.9984 1913.5 1390.8847 1820.6667 1413.2812 1700 L 1386.9688 1686 C 1355.4928 1766.6667 1323.1045 1822.3333 1289.8125 1853 C 1242.5984 1897.6667 1189.3203 1920 1130 1920 C 1047.0728 1920 981.25862 1878.1667 932.53125 1794.5 C 897.3159 1734.034 874.82773 1666.8716 865.0625 1593 L 1159.0625 1593 L 1159.0625 1528 L 859.8125 1528 C 859.56862 1520.3934 859.4375 1512.7351 859.4375 1505 C 859.4375 1397.6667 883.93875 1311.3333 932.96875 1246 C 969.8926 1196.6667 1018.6254 1172 1079.1562 1172 C 1116.6853 1172 1146.033 1182 1167.2188 1202 C 1188.4045 1222.6667 1200.6708 1252.6667 1204 1292 C 1207.3292 1331.3333 1214.1473 1358 1224.4375 1372 C 1242.5967 1397.3333 1269.5368 1410 1305.25 1410 C 1331.8835 1410 1352.6075 1402.1667 1367.4375 1386.5 C 1382.2676 1370.8333 1389.6875 1350.3333 1389.6875 1325 C 1389.6875 1273.6667 1363.3493 1224.1667 1310.6875 1176.5 C 1258.0256 1128.8333 1190.8417 1105 1109.125 1105 C 1000.1694 1105 906.78219 1150 829 1240 C 820.98641 1249.2723 813.45556 1258.842 806.34375 1268.6875 C 769.6193 1212.2869 726.43395 1177.0898 676 1149 C 623.33333 1119.6667 561.33333 1105 490 1105 z M 453 1160 C 537.66667 1160 602.5 1206.1667 647.5 1298.5 C 692.5 1390.8333 715 1514.6667 715 1670 C 715 1794.6667 695.5 1881.6667 656.5 1931 C 617.5 1980.3333 568.33333 2005 509 2005 C 448.33333 2005 397.33333 1975 356 1915 C 288 1816.3333 254 1681 254 1509 C 254 1409.6667 266.33333 1332.3333 291 1277 C 309 1234.3333 334.5 1204.1667 367.5 1186.5 C 400.5 1168.8333 429 1160 453 1160 z "
     transform="translate(0,-410)"
     id="path6-9" />
</svg>
