<?xml version="1.0" standalone="no"?>
<!DOCTYPE svg PUBLIC "-//W3C//DTD SVG 1.1//EN" "http://www.w3.org/Graphics/SVG/1.1/DTD/svg11.dtd" >
<svg xmlns="http://www.w3.org/2000/svg" xmlns:xlink="http://www.w3.org/1999/xlink" version="1.1" viewBox="0 -410 2048 2048">
  <g transform="matrix(1 0 0 -1 0 1638)">
   <path fill="currentColor"
d="M1011 1030q0 -164 -149 -282q-73 -57 -230 -143q-162 -87 -231 -140q-113 -86 -113 -196q0 -104 85 -166q77 -56 185 -56q100 0 189 43q95 45 144 126q44 73 70 218h37v-465h-37q-11 77 -61 77q-35 0 -122 -29q-100 -34 -130 -39q-53 -9 -111 -9q-172 0 -295 101
q-132 108 -132 276q0 170 145 284q69 54 259 156q232 125 295 200q43 52 43 113q0 92 -76 152q-70 56 -164 56t-179 -47t-131.5 -127.5t-64.5 -214.5h-37v469h37q17 -78 69 -78q22 0 79 25q120 53 229 53q162 0 276 -96q121 -102 121 -261z" />
  </g>

</svg>
