<?xml version="1.0" standalone="no"?>
<!DOCTYPE svg PUBLIC "-//W3C//DTD SVG 1.1//EN" "http://www.w3.org/Graphics/SVG/1.1/DTD/svg11.dtd" >
<svg xmlns="http://www.w3.org/2000/svg" xmlns:xlink="http://www.w3.org/1999/xlink" version="1.1" viewBox="0 -410 2048 2048">
  <g transform="matrix(1 0 0 -1 0 1638)">
   <path fill="currentColor"
d="M1233 1387l31 -461h-31q-62 207 -177 298t-276 91q-135 0 -244 -68.5t-171.5 -218.5t-62.5 -373q0 -184 59 -319t177.5 -207t270.5 -72q132 0 233 56.5t222 224.5l31 -20q-102 -181 -238 -265t-323 -84q-337 0 -522 250q-138 186 -138 438q0 203 91 373t250.5 263.5
t348.5 93.5q147 0 290 -72q42 -22 60 -22q27 0 47 19q26 27 37 75h35z" />
  </g>

</svg>
