<?xml version="1.0" standalone="no"?>
<!DOCTYPE svg PUBLIC "-//W3C//DTD SVG 1.1//EN" "http://www.w3.org/Graphics/SVG/1.1/DTD/svg11.dtd" >
<svg xmlns="http://www.w3.org/2000/svg" xmlns:xlink="http://www.w3.org/1999/xlink" version="1.1" viewBox="0 -410 2048 2048">
  <g transform="matrix(1 0 0 -1 0 1638)">
   <path fill="currentColor"
d="M507 943q135 0 222 -71.5q87 -71.5005 87 -148.5q0 -37.9995 -24.5 -61.5q-24.4995 -23.5005 -68.5 -23.5q-58.9995 0 -89 38q-16.9995 21 -22.5 80q-5.50049 58.9995 -40.5 90q-34.9995 30 -97 30q-100 0 -161 -74q-81 -97.9995 -81 -259q0 -11.4935 0.40625 -23
h329.594v-65h-323.781q16.1395 -110.857 74.2812 -201.5q80.5005 -125.5 217.5 -125.5q97.9995 0 176 67q55.0005 46.0005 107 167l29 -14q-37.0005 -181 -145 -278.5q-108 -97.5 -239 -97.5q-156 0 -272 131q-116 131 -116 354q0 216 128.5 351q128.5 135 308.5 135z" />
  </g>

</svg>
