<?xml version="1.0" standalone="no"?>
<!DOCTYPE svg PUBLIC "-//W3C//DTD SVG 1.1//EN" "http://www.w3.org/Graphics/SVG/1.1/DTD/svg11.dtd" >
<svg xmlns="http://www.w3.org/2000/svg" xmlns:xlink="http://www.w3.org/1999/xlink" version="1.1" viewBox="0 -410 2048 2048">
  <g transform="matrix(1 0 0 -1 0 1638)">
   <path fill="currentColor"
d="M612 752l500 -497q123 -123 210 -167.5t174 -50.5v-37h-645v37q58 0 83.5 19.5t25.5 43.5t-9.5 43t-62.5 71l-468 463v-437q0 -103 13 -136q10 -25 42 -43q43 -24 91 -24h46v-37h-578v37h48q84 0 122 49q24 32 24 154v876q0 103 -13 137q-10 24 -41 42q-44 24 -92 24h-48
v37h578v-37h-46q-47 0 -91 -23q-31 -16 -43 -48t-12 -132v-415q20 19 137 127q297 272 359 363q27 40 27 70q0 23 -21 40.5t-71 17.5h-31v37h498v-37q-44 -1 -80 -12t-88 -42.5t-128 -101.5q-22 -20 -203 -205z" />
  </g>

</svg>
