<?xml version="1.0" standalone="no"?>
<!DOCTYPE svg PUBLIC "-//W3C//DTD SVG 1.1//EN" "http://www.w3.org/Graphics/SVG/1.1/DTD/svg11.dtd" >
<svg xmlns="http://www.w3.org/2000/svg" xmlns:xlink="http://www.w3.org/1999/xlink" version="1.1" viewBox="0 -410 2048 2048">
  <g transform="matrix(1 0 0 -1 0 1638)">
   <path fill="currentColor"
d="M1009 1356l14 -296h-36q-32 144 -98.5 183t-236.5 39h-228v-537h54q249 0 366 -31.5t190.5 -120.5t73.5 -214q0 -151 -112 -265t-386 -114h-574v37q126 4 161 40t35 170v862q0 103 -14.5 139t-47.5 51t-122 20v37h961zM424 81q88 -14 137 -14q123 0 222.5 82t99.5 227
q0 150 -104 222.5t-264 72.5q-45 0 -91 -8v-582z" />
  </g>

</svg>
