<?xml version="1.0" encoding="UTF-8" standalone="no"?>
<svg
   xmlns:dc="http://purl.org/dc/elements/1.1/"
   xmlns:cc="http://creativecommons.org/ns#"
   xmlns:rdf="http://www.w3.org/1999/02/22-rdf-syntax-ns#"
   xmlns:svg="http://www.w3.org/2000/svg"
   xmlns="http://www.w3.org/2000/svg"
   xmlns:sodipodi="http://sodipodi.sourceforge.net/DTD/sodipodi-0.dtd"
   xmlns:inkscape="http://www.inkscape.org/namespaces/inkscape"
   version="1.1"
   viewBox="0 -410 2048 2048"
   id="svg5112"
   inkscape:version="0.48.3.1 r9886"
   width="100%"
   height="100%"
   sodipodi:docname="uniE01E_TaijituSerif.svg">
  <metadata
     id="metadata5122">
    <rdf:RDF>
      <cc:Work
         rdf:about="">
        <dc:format>image/svg+xml</dc:format>
        <dc:type
           rdf:resource="http://purl.org/dc/dcmitype/StillImage" />
      </cc:Work>
    </rdf:RDF>
  </metadata>
  <defs
     id="defs5120" />
  <sodipodi:namedview
     pagecolor="#ffffff"
     bordercolor="#666666"
     borderopacity="1"
     objecttolerance="10"
     gridtolerance="10"
     guidetolerance="10"
     inkscape:pageopacity="0"
     inkscape:pageshadow="2"
     inkscape:window-width="1920"
     inkscape:window-height="1018"
     id="namedview5118"
     showgrid="false"
     inkscape:zoom="0.5"
     inkscape:cx="551.27273"
     inkscape:cy="417.93939"
     inkscape:window-x="-8"
     inkscape:window-y="-8"
     inkscape:window-maximized="1"
     inkscape:current-layer="svg5112" />
  <g
     transform="matrix(1 0 0 -1 0 1638)"
     id="g5114">
    <path
       style="fill:currentColor"
       d="m 877,1105 -44,0 -137,55 c -50.66667,-37.3333 -112.33333,-56 -185,-56 -130,0 -238,56 -324,168 -79.33333,103.3333 -119,222 -119,356 0,116.6667 32.33333,218.3333 97,305 71.33333,95.3333 163.66667,143 277,143 98.34339,0 188.0089,-39.3575 269,-118.0625 l 0,118.0625 46,0 272,-113 -10.9688,-35.0312 c -30.00135,11.3335 -54.00074,17.0314 -71.99995,17.0312 -14.66777,2e-4 -27.50087,-4.6664 -38.5,-14 -11.00113,-9.3334 -19.00091,-25.833 -24,-49.5 -3.18773,-15.0855 -5.3758,-47.3591 -6.53125,-96.4375 L 877,1253 z m -378,61 c 141.33333,0 212,107.3333 212,322 l 0,396 c -54.66667,54.6667 -113.33333,82 -176,82 -94.66667,0 -168,-48.3333 -220,-145 -42.66667,-78.6667 -64,-169.3333 -64,-272 0,-93.3333 17.66667,-175.6667 53,-247 45.33333,-90.6667 110.33333,-136 195,-136 z"
       transform="matrix(1,0,0,-1,0,2048)"
       id="path5116"
       inkscape:connector-curvature="0"
       sodipodi:nodetypes="cccscscscccccccccccsscscscs" />
  </g>
</svg>
