<?xml version="1.0" encoding="UTF-8" standalone="no"?>
<svg
   xmlns:dc="http://purl.org/dc/elements/1.1/"
   xmlns:cc="http://creativecommons.org/ns#"
   xmlns:rdf="http://www.w3.org/1999/02/22-rdf-syntax-ns#"
   xmlns:svg="http://www.w3.org/2000/svg"
   xmlns="http://www.w3.org/2000/svg"
   xmlns:sodipodi="http://sodipodi.sourceforge.net/DTD/sodipodi-0.dtd"
   xmlns:inkscape="http://www.inkscape.org/namespaces/inkscape"
   version="1.1"
   viewBox="-27 -410 2048 2048"
   id="svg2"
   inkscape:version="0.48.3.1 r9886"
   width="100%"
   height="100%"
   sodipodi:docname="uniE015_TaijituSerif.svg">
  <metadata
     id="metadata12">
    <rdf:RDF>
      <cc:Work
         rdf:about="">
        <dc:format>image/svg+xml</dc:format>
        <dc:type
           rdf:resource="http://purl.org/dc/dcmitype/StillImage" />
      </cc:Work>
    </rdf:RDF>
  </metadata>
  <defs
     id="defs10" />
  <sodipodi:namedview
     pagecolor="#ffffff"
     bordercolor="#666666"
     borderopacity="1"
     objecttolerance="10"
     gridtolerance="10"
     guidetolerance="10"
     inkscape:pageopacity="0"
     inkscape:pageshadow="2"
     inkscape:window-width="1920"
     inkscape:window-height="1018"
     id="namedview8"
     showgrid="false"
     inkscape:zoom="0.44"
     inkscape:cx="811.22727"
     inkscape:cy="611.68182"
     inkscape:window-x="-8"
     inkscape:window-y="-8"
     inkscape:window-maximized="1"
     inkscape:current-layer="svg2" />
  <path
     style="fill:currentColor"
     d="m 1005,692 0,37 47,0 c 53.3333,0 92.3333,14 117,42 18.6667,20.6667 28,72.6667 28,156 l 0,782 L 368,692 0,692 0,729 c 39.333333,0 68.666667,3 88,9 39.33333,12.6667 69.16667,26.3333 89.5,41 20.33333,14.6667 50.16667,45 89.5,91 l 0,943 c 0,76 -7.33333,124.6667 -22,146 -24,34.6667 -65,52 -123,52 l -47,0 0,37 472,0 0,-37 -48,0 c -52.66667,0 -91.66667,-14 -117,-42 -18,-20.6667 -27,-72.6667 -27,-156 l 0,-835 894,1092 36,0 0,-1304 86,0 c 91.9986,10e-4 155.6652,5.33461 191,16 75.9984,22.66791 119.665,92.66784 131,210 l 40,0 -15,-300 z"
     transform="translate(-27,-410)"
     id="path6"
     inkscape:connector-curvature="0"
     sodipodi:nodetypes="ccscscccccscscsccccscscccccccccc" />
</svg>
