<?xml version="1.0" standalone="no"?>
<!DOCTYPE svg PUBLIC "-//W3C//DTD SVG 1.1//EN" "http://www.w3.org/Graphics/SVG/1.1/DTD/svg11.dtd" >
<svg xmlns="http://www.w3.org/2000/svg" xmlns:xlink="http://www.w3.org/1999/xlink" version="1.1" viewBox="0 -410 2048 2048">
  <g transform="matrix(1 0 0 -1 0 1638)">
   <path fill="currentColor"
d="M1237 931h-37q-27 175 -164 280.5t-280 105.5q-163 0 -296 -139.5t-154 -445.5h528v-74h-528q0 -192 70 -333t173 -210t246 -69q282 0 471 257l27 -21q-193 -313 -537 -313q-300 0 -490.5 204.5t-190.5 500.5q0 215 102 375.5t247.5 249t332.5 88.5q130 0 290 -58
q42 -15 57 -15q36 0 76 71h34z" />
  </g>

</svg>
