<?xml version="1.0" standalone="no"?>
<!DOCTYPE svg PUBLIC "-//W3C//DTD SVG 1.1//EN" "http://www.w3.org/Graphics/SVG/1.1/DTD/svg11.dtd" >
<svg xmlns="http://www.w3.org/2000/svg" xmlns:xlink="http://www.w3.org/1999/xlink" version="1.1" viewBox="0 -410 2048 2048">
  <g transform="matrix(1 0 0 -1 0 1638)">
   <path fill="currentColor"
d="M562 879h-33q-56 0 -81 -33q-17 -22 -17 -104v-436q0 -133 -58 -220q-72 -107 -212 -107q-50 0 -91 30q-45 34 -45 84q0 71 69 71q44 0 82 -90q16 -37 40 -37q50 0 50 102v603q0 99 -37 120q-30 17 -62 17h-33v37h428v-37z" />
  </g>

</svg>
