<?xml version="1.0" encoding="UTF-8" standalone="no"?>
<svg
   xmlns:dc="http://purl.org/dc/elements/1.1/"
   xmlns:cc="http://creativecommons.org/ns#"
   xmlns:rdf="http://www.w3.org/1999/02/22-rdf-syntax-ns#"
   xmlns:svg="http://www.w3.org/2000/svg"
   xmlns="http://www.w3.org/2000/svg"
   xmlns:sodipodi="http://sodipodi.sourceforge.net/DTD/sodipodi-0.dtd"
   xmlns:inkscape="http://www.inkscape.org/namespaces/inkscape"
   version="1.1"
   viewBox="0 -410 2048 2048"
   id="svg2"
   inkscape:version="0.48.3.1 r9886"
   width="100%"
   height="100%"
   sodipodi:docname="uniE03F_TaijituSerif.svg">
  <metadata
     id="metadata12">
    <rdf:RDF>
      <cc:Work
         rdf:about="">
        <dc:format>image/svg+xml</dc:format>
        <dc:type
           rdf:resource="http://purl.org/dc/dcmitype/StillImage" />
      </cc:Work>
    </rdf:RDF>
  </metadata>
  <defs
     id="defs10" />
  <sodipodi:namedview
     pagecolor="#ffffff"
     bordercolor="#666666"
     borderopacity="1"
     objecttolerance="10"
     gridtolerance="10"
     guidetolerance="10"
     inkscape:pageopacity="0"
     inkscape:pageshadow="2"
     inkscape:window-width="1920"
     inkscape:window-height="1018"
     id="namedview8"
     showgrid="false"
     inkscape:zoom="0.15"
     inkscape:cx="227.33333"
     inkscape:cy="-42.666667"
     inkscape:window-x="-8"
     inkscape:window-y="-8"
     inkscape:window-maximized="1"
     inkscape:current-layer="svg2" />
  <path
     style="font-size:131.73310852000000000px;font-style:normal;font-variant:normal;font-weight:normal;font-stretch:normal;text-align:start;line-height:125%;letter-spacing:0px;word-spacing:0px;writing-mode:lr-tb;text-anchor:start;fill:#000000;fill-opacity:1;stroke:none;font-family:Serif;-inkscape-font-specification:Serif"
     d="m 745.9673,1978.4899 c 63.9728,-68.7654 95.99537,-150.6104 95.99537,-245.7668 0,-54.753 -11.18237,-105.0361 -32.88727,-150.6589 -21.7035,-45.6284 -53.5697,-87.5251 -95.5503,-125.3288 -41.9834,-37.8009 -112.6034,-88.4452 -211.9907,-151.9914 -99.3844,-63.5475 -159.9369,-104.8881 -182.2136,-124.4385 -33.1291,-28.6792 -59.3636,-59.2427 -79.1073,-108.4393 -15.1062,-37.6444 -17.2878,-51.0212 -17.777,-78.66359 -2.4987,-141.0408 93.0545,-243.54408 208.879,-243.54408 44.4125,0 87.4071,12.53061 131.9931,51.55312 27.3963,23.97753 35.0973,53.14446 38.2218,86.66186 3.6649,39.3752 10.8894,65.9851 22.2197,79.9962 19.9984,25.3585 49.9987,38.22179 89.3299,38.22179 29.3319,0 52.1077,-7.87159 68.4412,-23.55509 16.3306,-15.6793 24.4411,-35.9734 24.444,-61.3304 0,-51.3839 -29.1144,-101.16788 -87.107,-148.88259 C 665.0709,728.07733 601.3369,704.73476 520.2002,698.60411 487.061,696.10013 449.6948,694.07559 415.76,695.43888 317.3725,699.69539 236.2115,736.1893 172.216,804.3219 103.9653,876.99541 70,963.48801 70,1063.8652 c 0,52.7932 10.5751,103.3167 31.9985,151.5491 21.4191,48.2309 51.8532,90.2485 91.5498,125.771 39.7023,35.5212 113.6885,86.4016 222.2117,152.8817 133.0867,81.471 217.4631,146.664 252.8776,195.5463 12.8819,17.4356 21.6281,36.1441 28.4431,55.9988 8.6439,25.1792 14.2216,51.4493 14.2216,79.551 0,112.4057 -78.621,197.7692 -175.1029,197.7692 -10.3675,0 -20.3581,-0.7822 -31.7766,-2.4447 -34.2753,-5.0003 -68.8949,-6.7126 -96.661,-36.6646 -21.8884,-22.9778 -34.2597,-54.2197 -37.7767,-91.9964 -3.5597,-38.2445 -11.454,-62.9744 -19.1095,-72.4417 -17.1654,-21.7618 -41.992,-32.8859 -78.2185,-32.8859 -26.7892,0 -45.3781,6.7993 -58.6639,19.5546 -13.5133,12.9701 -19.9998,29.2253 -19.9998,51.5532 0,46.0095 25.7225,91.6578 81.7739,137.7698 50.0343,41.1628 121.425,76.1137 197.7692,83.5516 8.4404,0.5973 16.8169,1.1804 26.6639,1.3368 100.1482,1.5089 181.7955,-33.011 245.7669,-101.7722 z"
     id="path4500"
     inkscape:connector-curvature="0"
     sodipodi:nodetypes="csccccccssccscccsccscccccssscccscsscscc" />
</svg>
